<svg width="682" height="510" viewBox="0 0 682 510" fill="none" xmlns="http://www.w3.org/2000/svg">
<path d="M114.99 214.864C115.953 214.864 116.734 214.464 116.734 213.97C116.734 213.477 115.953 213.076 114.99 213.076C114.027 213.076 113.246 213.477 113.246 213.97C113.246 214.464 114.027 214.864 114.99 214.864Z" fill="#31373E"/>
<path d="M123.117 200H77.9039C75.9899 200 74.4236 201.612 74.4236 203.578V216.527H81.3854V206.598H119.641V217.331H86.8213V227.17H119.64V228.962H86.8213V237.907H119.64V239.694H86.8213V280.333H74.4317V285.884C74.4317 287.849 75.998 289.462 77.9085 289.462H123.125C125.035 289.462 126.602 287.85 126.602 285.884V203.573C126.594 201.612 125.028 200 123.117 200ZM100.505 265.805C97.6274 265.805 95.2871 263.406 95.2871 260.436C95.2871 257.475 97.6227 255.067 100.505 255.067C103.386 255.067 105.726 257.465 105.726 260.436C105.726 263.406 103.386 265.805 100.505 265.805Z" fill="#31373E"/>
<path d="M82.6791 220.785H0V276.087H82.6791V220.785Z" fill="#31373E"/>
<path d="M28.9378 280.963L20.6696 289.47H62.0097L53.7414 280.963H28.9378Z" fill="#31373E"/>
<path d="M357.104 200H310.579C308.611 200 307 201.61 307 203.579V285.893C307 287.861 308.61 289.472 310.579 289.472H357.104C359.072 289.472 360.683 287.862 360.683 285.893V203.579C360.683 201.61 359.073 200 357.104 200ZM333.842 265.811C330.879 265.811 328.474 263.402 328.474 260.443C328.474 257.48 330.879 255.075 333.842 255.075C336.805 255.075 339.21 257.48 339.21 260.443C339.21 263.403 336.805 265.811 333.842 265.811ZM353.525 239.704H314.158V237.915H353.525V239.704ZM353.525 228.967H314.158V227.178H353.525V228.967ZM353.525 217.336H314.158V206.599H353.525V217.336Z" fill="#31373E"/>
<path d="M348.744 214.863C349.732 214.863 350.533 214.462 350.533 213.968C350.533 213.474 349.732 213.073 348.744 213.073C347.756 213.073 346.955 213.474 346.955 213.968C346.955 214.462 347.756 214.863 348.744 214.863Z" fill="#31373E"/>
<path d="M645.104 200H598.579C596.611 200 595 201.61 595 203.579V285.893C595 287.861 596.61 289.472 598.579 289.472H645.104C647.072 289.472 648.683 287.862 648.683 285.893V203.579C648.683 201.61 647.073 200 645.104 200ZM621.842 265.811C618.879 265.811 616.474 263.402 616.474 260.443C616.474 257.48 618.879 255.075 621.842 255.075C624.805 255.075 627.21 257.48 627.21 260.443C627.21 263.403 624.805 265.811 621.842 265.811ZM641.525 239.704H602.158V237.915H641.525V239.704ZM641.525 228.967H602.158V227.178H641.525V228.967ZM641.525 217.336H602.158V206.599H641.525V217.336Z" fill="#31373E"/>
<path d="M636.744 214.863C637.732 214.863 638.533 214.462 638.533 213.968C638.533 213.474 637.732 213.073 636.744 213.073C635.756 213.073 634.955 213.474 634.955 213.968C634.955 214.462 635.756 214.863 636.744 214.863Z" fill="#31373E"/>
<path d="M605.104 308H558.579C556.611 308 555 309.61 555 311.579V393.893C555 395.861 556.61 397.472 558.579 397.472H605.104C607.072 397.472 608.683 395.862 608.683 393.893V311.579C608.683 309.61 607.073 308 605.104 308ZM581.842 373.811C578.879 373.811 576.474 371.402 576.474 368.443C576.474 365.48 578.879 363.075 581.842 363.075C584.805 363.075 587.21 365.48 587.21 368.443C587.21 371.403 584.805 373.811 581.842 373.811ZM601.525 347.704H562.158V345.915H601.525V347.704ZM601.525 336.967H562.158V335.178H601.525V336.967ZM601.525 325.336H562.158V314.599H601.525V325.336Z" fill="#31373E"/>
<path d="M596.744 322.863C597.732 322.863 598.533 322.462 598.533 321.968C598.533 321.474 597.732 321.073 596.744 321.073C595.756 321.073 594.955 321.474 594.955 321.968C594.955 322.462 595.756 322.863 596.744 322.863Z" fill="#31373E"/>
<path d="M514.104 382H467.579C465.611 382 464 383.61 464 385.579V467.893C464 469.861 465.61 471.472 467.579 471.472H514.104C516.072 471.472 517.683 469.862 517.683 467.893V385.579C517.683 383.61 516.073 382 514.104 382ZM490.842 447.811C487.879 447.811 485.474 445.402 485.474 442.443C485.474 439.48 487.879 437.075 490.842 437.075C493.805 437.075 496.21 439.48 496.21 442.443C496.21 445.403 493.805 447.811 490.842 447.811ZM510.525 421.704H471.158V419.915H510.525V421.704ZM510.525 410.967H471.158V409.178H510.525V410.967ZM510.525 399.336H471.158V388.599H510.525V399.336Z" fill="#31373E"/>
<path d="M505.744 396.863C506.732 396.863 507.533 396.462 507.533 395.968C507.533 395.474 506.732 395.073 505.744 395.073C504.756 395.073 503.955 395.474 503.955 395.968C503.955 396.462 504.756 396.863 505.744 396.863Z" fill="#31373E"/>
<path d="M605.104 92H558.579C556.611 92 555 93.61 555 95.579V177.893C555 179.861 556.61 181.472 558.579 181.472H605.104C607.072 181.472 608.683 179.862 608.683 177.893V95.579C608.683 93.61 607.073 92 605.104 92ZM581.842 157.811C578.879 157.811 576.474 155.402 576.474 152.443C576.474 149.48 578.879 147.075 581.842 147.075C584.805 147.075 587.21 149.48 587.21 152.443C587.21 155.403 584.805 157.811 581.842 157.811ZM601.525 131.704H562.158V129.915H601.525V131.704ZM601.525 120.967H562.158V119.178H601.525V120.967ZM601.525 109.336H562.158V98.599H601.525V109.336Z" fill="#31373E"/>
<path d="M596.744 106.863C597.732 106.863 598.533 106.462 598.533 105.968C598.533 105.474 597.732 105.073 596.744 105.073C595.756 105.073 594.955 105.474 594.955 105.968C594.955 106.462 595.756 106.863 596.744 106.863Z" fill="#31373E"/>
<path d="M514.104 43H467.579C465.611 43 464 44.61 464 46.579V128.893C464 130.861 465.61 132.472 467.579 132.472H514.104C516.072 132.472 517.683 130.862 517.683 128.893V46.579C517.683 44.61 516.073 43 514.104 43ZM490.842 108.811C487.879 108.811 485.474 106.402 485.474 103.443C485.474 100.48 487.879 98.075 490.842 98.075C493.805 98.075 496.21 100.48 496.21 103.443C496.21 106.403 493.805 108.811 490.842 108.811ZM510.525 82.704H471.158V80.915H510.525V82.704ZM510.525 71.967H471.158V70.178H510.525V71.967ZM510.525 60.336H471.158V49.599H510.525V60.336Z" fill="#31373E"/>
<path d="M505.744 57.863C506.732 57.863 507.533 57.4623 507.533 56.968C507.533 56.4737 506.732 56.073 505.744 56.073C504.756 56.073 503.955 56.4737 503.955 56.968C503.955 57.4623 504.756 57.863 505.744 57.863Z" fill="#31373E"/>
<path d="M263.828 250.828C265.391 249.266 265.391 246.734 263.828 245.172L238.373 219.716C236.81 218.154 234.278 218.154 232.716 219.716C231.154 221.278 231.154 223.81 232.716 225.373L255.343 248L232.716 270.627C231.154 272.19 231.154 274.722 232.716 276.284C234.278 277.846 236.81 277.846 238.373 276.284L263.828 250.828ZM161 252H261V244H161V252Z" fill="black"/>
<path d="M513.071 252.071C516.976 248.166 516.976 241.834 513.071 237.929L449.431 174.289C445.526 170.384 439.195 170.384 435.289 174.289C431.384 178.195 431.384 184.526 435.289 188.431L491.858 245L435.289 301.569C431.384 305.474 431.384 311.805 435.289 315.711C439.195 319.616 445.526 319.616 449.431 315.711L513.071 252.071ZM406 255H506V235H406V255Z" fill="black"/>
<path d="M17.8267 326.046C16.4025 326.046 15.2998 326.583 14.5186 327.658C13.7373 328.724 13.3467 330.213 13.3467 332.125C13.3467 336.105 14.84 338.095 17.8267 338.095C19.0799 338.095 20.5977 337.781 22.3799 337.155V340.329C20.915 340.939 19.2793 341.244 17.4727 341.244C14.8766 341.244 12.891 340.459 11.5156 338.888C10.1403 337.309 9.45264 335.047 9.45264 332.101C9.45264 330.246 9.79036 328.622 10.4658 327.23C11.1413 325.831 12.1097 324.761 13.3711 324.02C14.6406 323.271 16.1258 322.897 17.8267 322.897C19.5601 322.897 21.3016 323.316 23.0513 324.154L21.8306 327.23C21.1632 326.913 20.4919 326.636 19.8164 326.4C19.141 326.164 18.4777 326.046 17.8267 326.046ZM26.1885 341V323.153H29.9727V337.875H37.2114V341H26.1885ZM40.3242 341V323.153H44.1084V341H40.3242ZM58.8789 341H48.6006V323.153H58.8789V326.254H52.3848V330.172H58.4272V333.273H52.3848V337.875H58.8789V341ZM78.4468 341H73.6372L65.8735 327.499H65.7637C65.9183 329.883 65.9956 331.584 65.9956 332.602V341H62.6143V323.153H67.3872L75.1387 336.52H75.2241C75.1021 334.201 75.041 332.561 75.041 331.601V323.153H78.4468V341ZM89.8359 341H86.0518V326.303H81.2056V323.153H94.6821V326.303H89.8359V341ZM107.707 341H97.4287V323.153H107.707V326.254H101.213V330.172H107.255V333.273H101.213V337.875H107.707V341Z" fill="black"/>
<path d="M261.861 330.037C260.722 330.037 259.84 330.467 259.215 331.326C258.59 332.179 258.277 333.37 258.277 334.9C258.277 338.084 259.472 339.676 261.861 339.676C262.864 339.676 264.078 339.425 265.504 338.924V341.463C264.332 341.951 263.023 342.195 261.578 342.195C259.501 342.195 257.913 341.567 256.812 340.311C255.712 339.048 255.162 337.238 255.162 334.881C255.162 333.396 255.432 332.098 255.973 330.984C256.513 329.865 257.288 329.008 258.297 328.416C259.312 327.817 260.501 327.518 261.861 327.518C263.248 327.518 264.641 327.853 266.041 328.523L265.064 330.984C264.531 330.73 263.993 330.509 263.453 330.32C262.913 330.132 262.382 330.037 261.861 330.037ZM281.51 334.842C281.51 337.205 280.924 339.021 279.752 340.291C278.58 341.561 276.9 342.195 274.713 342.195C272.525 342.195 270.846 341.561 269.674 340.291C268.502 339.021 267.916 337.199 267.916 334.822C267.916 332.446 268.502 330.633 269.674 329.383C270.852 328.126 272.538 327.498 274.732 327.498C276.926 327.498 278.603 328.13 279.762 329.393C280.927 330.656 281.51 332.472 281.51 334.842ZM271.09 334.842C271.09 336.437 271.393 337.638 271.998 338.445C272.604 339.253 273.508 339.656 274.713 339.656C277.128 339.656 278.336 338.051 278.336 334.842C278.336 331.626 277.135 330.018 274.732 330.018C273.528 330.018 272.62 330.424 272.008 331.238C271.396 332.046 271.09 333.247 271.09 334.842ZM297.428 334.842C297.428 337.205 296.842 339.021 295.67 340.291C294.498 341.561 292.818 342.195 290.631 342.195C288.443 342.195 286.764 341.561 285.592 340.291C284.42 339.021 283.834 337.199 283.834 334.822C283.834 332.446 284.42 330.633 285.592 329.383C286.77 328.126 288.456 327.498 290.65 327.498C292.844 327.498 294.521 328.13 295.68 329.393C296.845 330.656 297.428 332.472 297.428 334.842ZM287.008 334.842C287.008 336.437 287.311 337.638 287.916 338.445C288.521 339.253 289.426 339.656 290.631 339.656C293.046 339.656 294.254 338.051 294.254 334.842C294.254 331.626 293.053 330.018 290.65 330.018C289.446 330.018 288.538 330.424 287.926 331.238C287.314 332.046 287.008 333.247 287.008 334.842ZM303.414 334.061H304.391C305.348 334.061 306.054 333.901 306.51 333.582C306.965 333.263 307.193 332.762 307.193 332.078C307.193 331.401 306.959 330.919 306.49 330.633C306.028 330.346 305.309 330.203 304.332 330.203H303.414V334.061ZM303.414 336.521V342H300.387V327.723H304.547C306.487 327.723 307.923 328.077 308.854 328.787C309.785 329.49 310.25 330.561 310.25 332C310.25 332.84 310.019 333.589 309.557 334.246C309.094 334.897 308.44 335.408 307.594 335.779C309.742 338.989 311.142 341.062 311.793 342H308.434L305.025 336.521H303.414ZM325.436 334.725C325.436 337.075 324.765 338.875 323.424 340.125C322.089 341.375 320.159 342 317.633 342H313.59V327.723H318.072C320.403 327.723 322.213 328.338 323.502 329.568C324.791 330.799 325.436 332.518 325.436 334.725ZM322.291 334.803C322.291 331.736 320.937 330.203 318.229 330.203H316.617V339.5H317.916C320.833 339.5 322.291 337.934 322.291 334.803ZM336.617 342H328.395V327.723H336.617V330.203H331.422V333.338H336.256V335.818H331.422V339.5H336.617V342ZM352.271 342H348.424L342.213 331.199H342.125C342.249 333.107 342.311 334.467 342.311 335.281V342H339.605V327.723H343.424L349.625 338.416H349.693C349.596 336.561 349.547 335.249 349.547 334.48V327.723H352.271V342ZM364.615 342L363.58 338.602H358.375L357.34 342H354.078L359.117 327.664H362.818L367.877 342H364.615ZM362.857 336.062C361.9 332.983 361.36 331.242 361.236 330.838C361.119 330.434 361.035 330.115 360.982 329.881C360.768 330.714 360.152 332.775 359.137 336.062H362.857ZM381.529 334.725C381.529 337.075 380.859 338.875 379.518 340.125C378.183 341.375 376.253 342 373.727 342H369.684V327.723H374.166C376.497 327.723 378.307 328.338 379.596 329.568C380.885 330.799 381.529 332.518 381.529 334.725ZM378.385 334.803C378.385 331.736 377.031 330.203 374.322 330.203H372.711V339.5H374.01C376.926 339.5 378.385 337.934 378.385 334.803ZM397.447 334.842C397.447 337.205 396.861 339.021 395.689 340.291C394.518 341.561 392.838 342.195 390.65 342.195C388.463 342.195 386.783 341.561 385.611 340.291C384.439 339.021 383.854 337.199 383.854 334.822C383.854 332.446 384.439 330.633 385.611 329.383C386.79 328.126 388.476 327.498 390.67 327.498C392.864 327.498 394.54 328.13 395.699 329.393C396.865 330.656 397.447 332.472 397.447 334.842ZM387.027 334.842C387.027 336.437 387.33 337.638 387.936 338.445C388.541 339.253 389.446 339.656 390.65 339.656C393.066 339.656 394.273 338.051 394.273 334.842C394.273 331.626 393.072 330.018 390.67 330.018C389.465 330.018 388.557 330.424 387.945 331.238C387.333 332.046 387.027 333.247 387.027 334.842ZM403.434 334.061H404.41C405.367 334.061 406.074 333.901 406.529 333.582C406.985 333.263 407.213 332.762 407.213 332.078C407.213 331.401 406.979 330.919 406.51 330.633C406.048 330.346 405.328 330.203 404.352 330.203H403.434V334.061ZM403.434 336.521V342H400.406V327.723H404.566C406.507 327.723 407.942 328.077 408.873 328.787C409.804 329.49 410.27 330.561 410.27 332C410.27 332.84 410.038 333.589 409.576 334.246C409.114 334.897 408.46 335.408 407.613 335.779C409.762 338.989 411.161 341.062 411.812 342H408.453L405.045 336.521H403.434Z" fill="black"/>
<path d="M491.225 17.0352C491.225 18.3242 490.759 19.3398 489.828 20.082C488.904 20.8242 487.615 21.1953 485.961 21.1953C484.438 21.1953 483.09 20.9089 481.918 20.3359V17.5234C482.882 17.9531 483.695 18.2559 484.359 18.4316C485.03 18.6074 485.642 18.6953 486.195 18.6953C486.859 18.6953 487.367 18.5684 487.719 18.3145C488.077 18.0605 488.256 17.6829 488.256 17.1816C488.256 16.9017 488.178 16.6543 488.021 16.4395C487.865 16.2181 487.634 16.0065 487.328 15.8047C487.029 15.6029 486.413 15.2806 485.482 14.8379C484.61 14.4277 483.956 14.0339 483.52 13.6562C483.083 13.2786 482.735 12.8392 482.475 12.3379C482.214 11.8366 482.084 11.2507 482.084 10.5801C482.084 9.31706 482.51 8.32422 483.363 7.60156C484.223 6.87891 485.408 6.51758 486.918 6.51758C487.66 6.51758 488.367 6.60547 489.037 6.78125C489.714 6.95703 490.421 7.20443 491.156 7.52344L490.18 9.87695C489.418 9.56445 488.786 9.34635 488.285 9.22266C487.79 9.09896 487.302 9.03711 486.82 9.03711C486.247 9.03711 485.808 9.17057 485.502 9.4375C485.196 9.70443 485.043 10.0527 485.043 10.4824C485.043 10.7493 485.105 10.9837 485.229 11.1855C485.352 11.3809 485.548 11.5729 485.814 11.7617C486.088 11.944 486.729 12.276 487.738 12.7578C489.073 13.3958 489.988 14.0371 490.482 14.6816C490.977 15.3197 491.225 16.1042 491.225 17.0352ZM497.799 21H495.687V15.2168L495.707 14.2666L495.741 13.2275C495.39 13.5785 495.146 13.8086 495.01 13.918L493.861 14.8408L492.843 13.5693L496.062 11.0059H497.799V21Z" fill="black"/>
<path d="M582.225 74.0352C582.225 75.3242 581.759 76.3398 580.828 77.082C579.904 77.8242 578.615 78.1953 576.961 78.1953C575.438 78.1953 574.09 77.9089 572.918 77.3359V74.5234C573.882 74.9531 574.695 75.2559 575.359 75.4316C576.03 75.6074 576.642 75.6953 577.195 75.6953C577.859 75.6953 578.367 75.5684 578.719 75.3145C579.077 75.0605 579.256 74.6829 579.256 74.1816C579.256 73.9017 579.178 73.6543 579.021 73.4395C578.865 73.2181 578.634 73.0065 578.328 72.8047C578.029 72.6029 577.413 72.2806 576.482 71.8379C575.61 71.4277 574.956 71.0339 574.52 70.6562C574.083 70.2786 573.735 69.8392 573.475 69.3379C573.214 68.8366 573.084 68.2507 573.084 67.5801C573.084 66.3171 573.51 65.3242 574.363 64.6016C575.223 63.8789 576.408 63.5176 577.918 63.5176C578.66 63.5176 579.367 63.6055 580.037 63.7812C580.714 63.957 581.421 64.2044 582.156 64.5234L581.18 66.877C580.418 66.5645 579.786 66.3464 579.285 66.2227C578.79 66.099 578.302 66.0371 577.82 66.0371C577.247 66.0371 576.808 66.1706 576.502 66.4375C576.196 66.7044 576.043 67.0527 576.043 67.4824C576.043 67.7493 576.105 67.9837 576.229 68.1855C576.352 68.3809 576.548 68.5729 576.814 68.7617C577.088 68.944 577.729 69.276 578.738 69.7578C580.073 70.3958 580.988 71.0371 581.482 71.6816C581.977 72.3197 582.225 73.1042 582.225 74.0352ZM590.562 78H583.576V76.5303L586.085 73.9941C586.828 73.2331 587.313 72.7067 587.541 72.415C587.769 72.1188 587.933 71.8454 588.033 71.5947C588.133 71.3441 588.184 71.0843 588.184 70.8154C588.184 70.4144 588.072 70.1159 587.849 69.9199C587.63 69.724 587.336 69.626 586.967 69.626C586.579 69.626 586.203 69.7148 585.839 69.8926C585.474 70.0703 585.094 70.3232 584.697 70.6514L583.549 69.291C584.041 68.8717 584.449 68.5755 584.772 68.4023C585.096 68.2292 585.449 68.097 585.832 68.0059C586.215 67.9102 586.643 67.8623 587.117 67.8623C587.742 67.8623 588.293 67.9762 588.771 68.2041C589.25 68.432 589.621 68.751 589.886 69.1611C590.15 69.5713 590.282 70.0407 590.282 70.5693C590.282 71.0296 590.2 71.4626 590.036 71.8682C589.877 72.2692 589.626 72.6816 589.284 73.1055C588.947 73.5293 588.35 74.1331 587.493 74.917L586.208 76.127V76.2227H590.562V78Z" fill="black"/>
<path d="M672.225 249.035C672.225 250.324 671.759 251.34 670.828 252.082C669.904 252.824 668.615 253.195 666.961 253.195C665.438 253.195 664.09 252.909 662.918 252.336V249.523C663.882 249.953 664.695 250.256 665.359 250.432C666.03 250.607 666.642 250.695 667.195 250.695C667.859 250.695 668.367 250.568 668.719 250.314C669.077 250.061 669.256 249.683 669.256 249.182C669.256 248.902 669.178 248.654 669.021 248.439C668.865 248.218 668.634 248.007 668.328 247.805C668.029 247.603 667.413 247.281 666.482 246.838C665.61 246.428 664.956 246.034 664.52 245.656C664.083 245.279 663.735 244.839 663.475 244.338C663.214 243.837 663.084 243.251 663.084 242.58C663.084 241.317 663.51 240.324 664.363 239.602C665.223 238.879 666.408 238.518 667.918 238.518C668.66 238.518 669.367 238.605 670.037 238.781C670.714 238.957 671.421 239.204 672.156 239.523L671.18 241.877C670.418 241.564 669.786 241.346 669.285 241.223C668.79 241.099 668.302 241.037 667.82 241.037C667.247 241.037 666.808 241.171 666.502 241.438C666.196 241.704 666.043 242.053 666.043 242.482C666.043 242.749 666.105 242.984 666.229 243.186C666.352 243.381 666.548 243.573 666.814 243.762C667.088 243.944 667.729 244.276 668.738 244.758C670.073 245.396 670.988 246.037 671.482 246.682C671.977 247.32 672.225 248.104 672.225 249.035ZM680.173 245.241C680.173 245.866 679.984 246.396 679.605 246.834C679.227 247.271 678.696 247.572 678.013 247.736V247.777C678.819 247.878 679.43 248.124 679.845 248.516C680.259 248.903 680.467 249.427 680.467 250.088C680.467 251.049 680.118 251.799 679.421 252.337C678.724 252.87 677.728 253.137 676.434 253.137C675.349 253.137 674.387 252.957 673.549 252.597V250.799C673.936 250.995 674.362 251.154 674.827 251.277C675.292 251.4 675.752 251.462 676.208 251.462C676.905 251.462 677.42 251.343 677.753 251.106C678.086 250.869 678.252 250.489 678.252 249.965C678.252 249.495 678.061 249.163 677.678 248.967C677.295 248.771 676.684 248.673 675.846 248.673H675.087V247.053H675.859C676.634 247.053 677.199 246.952 677.555 246.752C677.915 246.547 678.095 246.198 678.095 245.706C678.095 244.95 677.621 244.571 676.673 244.571C676.345 244.571 676.01 244.626 675.668 244.735C675.331 244.845 674.955 245.034 674.54 245.303L673.562 243.847C674.474 243.19 675.561 242.862 676.823 242.862C677.858 242.862 678.674 243.072 679.271 243.491C679.872 243.91 680.173 244.494 680.173 245.241Z" fill="black"/>
<path d="M586.225 423.035C586.225 424.324 585.759 425.34 584.828 426.082C583.904 426.824 582.615 427.195 580.961 427.195C579.438 427.195 578.09 426.909 576.918 426.336V423.523C577.882 423.953 578.695 424.256 579.359 424.432C580.03 424.607 580.642 424.695 581.195 424.695C581.859 424.695 582.367 424.568 582.719 424.314C583.077 424.061 583.256 423.683 583.256 423.182C583.256 422.902 583.178 422.654 583.021 422.439C582.865 422.218 582.634 422.007 582.328 421.805C582.029 421.603 581.413 421.281 580.482 420.838C579.61 420.428 578.956 420.034 578.52 419.656C578.083 419.279 577.735 418.839 577.475 418.338C577.214 417.837 577.084 417.251 577.084 416.58C577.084 415.317 577.51 414.324 578.363 413.602C579.223 412.879 580.408 412.518 581.918 412.518C582.66 412.518 583.367 412.605 584.037 412.781C584.714 412.957 585.421 413.204 586.156 413.523L585.18 415.877C584.418 415.564 583.786 415.346 583.285 415.223C582.79 415.099 582.302 415.037 581.82 415.037C581.247 415.037 580.808 415.171 580.502 415.438C580.196 415.704 580.043 416.053 580.043 416.482C580.043 416.749 580.105 416.984 580.229 417.186C580.352 417.381 580.548 417.573 580.814 417.762C581.088 417.944 581.729 418.276 582.738 418.758C584.073 419.396 584.988 420.037 585.482 420.682C585.977 421.32 586.225 422.104 586.225 423.035ZM595.343 424.781H594.054V427H591.842V424.781H587.272V423.206L591.967 416.292H594.054V423.023H595.343V424.781ZM591.842 423.023V421.207C591.842 420.904 591.854 420.464 591.879 419.888C591.903 419.312 591.923 418.978 591.938 418.885H591.879C591.698 419.285 591.481 419.676 591.227 420.057L589.264 423.023H591.842Z" fill="black"/>
<path d="M536.143 452.604C536.143 452.057 536.289 451.643 536.582 451.363C536.875 451.083 537.301 450.943 537.861 450.943C538.402 450.943 538.818 451.087 539.111 451.373C539.411 451.66 539.561 452.07 539.561 452.604C539.561 453.118 539.411 453.525 539.111 453.824C538.812 454.117 538.395 454.264 537.861 454.264C537.314 454.264 536.891 454.12 536.592 453.834C536.292 453.541 536.143 453.131 536.143 452.604ZM541.846 452.604C541.846 452.057 541.992 451.643 542.285 451.363C542.578 451.083 543.005 450.943 543.564 450.943C544.105 450.943 544.521 451.087 544.814 451.373C545.114 451.66 545.264 452.07 545.264 452.604C545.264 453.118 545.114 453.525 544.814 453.824C544.515 454.117 544.098 454.264 543.564 454.264C543.018 454.264 542.594 454.12 542.295 453.834C541.995 453.541 541.846 453.131 541.846 452.604ZM547.549 452.604C547.549 452.057 547.695 451.643 547.988 451.363C548.281 451.083 548.708 450.943 549.268 450.943C549.808 450.943 550.225 451.087 550.518 451.373C550.817 451.66 550.967 452.07 550.967 452.604C550.967 453.118 550.817 453.525 550.518 453.824C550.218 454.117 549.801 454.264 549.268 454.264C548.721 454.264 548.298 454.12 547.998 453.834C547.699 453.541 547.549 453.131 547.549 452.604Z" fill="black"/>
<path d="M491.225 500.035C491.225 501.324 490.759 502.34 489.828 503.082C488.904 503.824 487.615 504.195 485.961 504.195C484.438 504.195 483.09 503.909 481.918 503.336V500.523C482.882 500.953 483.695 501.256 484.359 501.432C485.03 501.607 485.642 501.695 486.195 501.695C486.859 501.695 487.367 501.568 487.719 501.314C488.077 501.061 488.256 500.683 488.256 500.182C488.256 499.902 488.178 499.654 488.021 499.439C487.865 499.218 487.634 499.007 487.328 498.805C487.029 498.603 486.413 498.281 485.482 497.838C484.61 497.428 483.956 497.034 483.52 496.656C483.083 496.279 482.735 495.839 482.475 495.338C482.214 494.837 482.084 494.251 482.084 493.58C482.084 492.317 482.51 491.324 483.363 490.602C484.223 489.879 485.408 489.518 486.918 489.518C487.66 489.518 488.367 489.605 489.037 489.781C489.714 489.957 490.421 490.204 491.156 490.523L490.18 492.877C489.418 492.564 488.786 492.346 488.285 492.223C487.79 492.099 487.302 492.037 486.82 492.037C486.247 492.037 485.808 492.171 485.502 492.438C485.196 492.704 485.043 493.053 485.043 493.482C485.043 493.749 485.105 493.984 485.229 494.186C485.352 494.381 485.548 494.573 485.814 494.762C486.088 494.944 486.729 495.276 487.738 495.758C489.073 496.396 489.988 497.037 490.482 497.682C490.977 498.32 491.225 499.104 491.225 500.035ZM500.164 504H498.079V499.536C498.079 498.985 497.981 498.572 497.785 498.299C497.589 498.021 497.277 497.882 496.849 497.882C496.265 497.882 495.844 498.078 495.584 498.47C495.324 498.857 495.194 499.502 495.194 500.404V504H493.109V496.357H494.702L494.982 497.335H495.099C495.331 496.966 495.65 496.688 496.056 496.501C496.466 496.31 496.931 496.214 497.45 496.214C498.339 496.214 499.013 496.455 499.474 496.938C499.934 497.417 500.164 498.11 500.164 499.017V504Z" fill="black"/>
</svg>
