<svg width="550" height="338" viewBox="0 0 550 338" fill="none" xmlns="http://www.w3.org/2000/svg">
<path d="M37.932 151.928C27.6467 151.928 19.4107 149.995 13.224 146.128C7.03733 142.184 3.944 136.191 3.944 128.148C3.944 123.895 4.67867 120.647 6.148 118.404C7.61733 116.161 9.78267 115.04 12.644 115.04C14.732 115.04 16.4333 115.581 17.748 116.664C19.0627 117.747 19.72 119.139 19.72 120.84C19.72 122.387 19.604 123.74 19.372 124.9C19.372 125.209 19.2947 125.751 19.14 126.524C19.0627 127.297 19.024 128.109 19.024 128.96C19.024 132.44 20.764 135.031 24.244 136.732C27.8013 138.433 32.7507 139.284 39.092 139.284C45.6653 139.284 50.808 138.124 54.52 135.804C58.232 133.407 60.088 130.081 60.088 125.828C60.088 123.199 59.2373 120.956 57.536 119.1C55.8347 117.167 53.708 115.581 51.156 114.344C48.604 113.029 45.008 111.444 40.368 109.588C34.4133 107.268 29.5413 105.064 25.752 102.976C22.04 100.888 18.8307 98.0653 16.124 94.508C13.4947 90.8733 12.18 86.388 12.18 81.052C12.18 75.484 13.6493 70.5347 16.588 66.204C19.604 61.8733 23.896 58.5093 29.464 56.112C35.1093 53.7147 41.7213 52.516 49.3 52.516C54.9453 52.516 60.1267 53.3667 64.844 55.068C69.5613 56.692 73.312 59.2053 76.096 62.608C78.9573 66.0107 80.388 70.1867 80.388 75.136C80.388 80.008 79.6533 83.6813 78.184 86.156C76.7147 88.6307 74.5493 89.868 71.688 89.868C69.6773 89.868 67.976 89.2493 66.584 88.012C65.2693 86.7747 64.612 85.3053 64.612 83.604C64.612 82.1347 64.728 80.7813 64.96 79.544C65.192 77.224 65.308 75.7547 65.308 75.136C65.308 71.888 63.7227 69.4133 60.552 67.712C57.3813 66.0107 53.4373 65.16 48.72 65.16C42.0693 65.16 36.9653 66.3973 33.408 68.872C29.928 71.2693 28.188 74.672 28.188 79.08C28.188 82.0187 29.0773 84.532 30.856 86.62C32.712 88.708 34.9933 90.448 37.7 91.84C40.4067 93.232 44.196 94.8947 49.068 96.828C54.9453 99.2253 59.6627 101.391 63.22 103.324C66.7773 105.257 69.7933 107.887 72.268 111.212C74.82 114.537 76.096 118.636 76.096 123.508C76.096 132.633 72.616 139.671 65.656 144.62C58.7733 149.492 49.532 151.928 37.932 151.928ZM137.734 125.132C138.739 125.132 139.512 125.596 140.054 126.524C140.672 127.452 140.982 128.728 140.982 130.352C140.982 133.445 140.247 135.843 138.778 137.544C135.916 141.024 131.856 144.233 126.598 147.172C121.416 150.111 115.848 151.58 109.894 151.58C101.774 151.58 95.471 149.376 90.9857 144.968C86.5004 140.56 84.2577 134.528 84.2577 126.872C84.2577 121.536 85.379 116.587 87.6217 112.024C89.8644 107.384 92.9577 103.711 96.9017 101.004C100.923 98.2973 105.447 96.944 110.474 96.944C114.959 96.944 118.555 98.2973 121.262 101.004C123.968 103.633 125.322 107.229 125.322 111.792C125.322 117.128 123.388 121.729 119.522 125.596C115.732 129.385 109.275 132.401 100.15 134.644C102.083 138.201 105.756 139.98 111.17 139.98C114.65 139.98 118.594 138.781 123.002 136.384C127.487 133.909 131.354 130.7 134.602 126.756C135.53 125.673 136.574 125.132 137.734 125.132ZM108.502 108.312C105.64 108.312 103.204 109.975 101.194 113.3C99.2604 116.625 98.2937 120.647 98.2937 125.364V125.596C102.856 124.513 106.452 122.889 109.082 120.724C111.711 118.559 113.026 116.045 113.026 113.184C113.026 111.715 112.6 110.555 111.75 109.704C110.976 108.776 109.894 108.312 108.502 108.312ZM139.773 151.58C136.834 151.58 134.746 150.033 133.509 146.94C132.349 143.847 131.769 138.897 131.769 132.092C131.769 122.039 133.199 112.488 136.061 103.44C136.757 101.197 137.878 99.5733 139.425 98.568C141.049 97.4853 143.291 96.944 146.153 96.944C147.699 96.944 148.782 97.1373 149.401 97.524C150.019 97.9107 150.329 98.6453 150.329 99.728C150.329 100.965 149.749 103.749 148.589 108.08C147.815 111.173 147.197 113.88 146.733 116.2C146.269 118.52 145.882 121.381 145.573 124.784C148.125 118.133 150.986 112.72 154.157 108.544C157.327 104.368 160.421 101.391 163.437 99.612C166.53 97.8333 169.353 96.944 171.905 96.944C176.931 96.944 179.445 99.4573 179.445 104.484C179.445 105.489 179.097 107.925 178.401 111.792C177.782 114.885 177.473 116.819 177.473 117.592C177.473 120.299 178.439 121.652 180.373 121.652C182.538 121.652 185.322 119.951 188.725 116.548C189.73 115.543 190.774 115.04 191.857 115.04C192.862 115.04 193.635 115.504 194.177 116.432C194.795 117.283 195.105 118.443 195.105 119.912C195.105 122.773 194.331 125.016 192.785 126.64C190.619 128.883 188.067 130.816 185.129 132.44C182.267 133.987 179.213 134.76 175.965 134.76C171.866 134.76 168.734 133.716 166.569 131.628C164.481 129.54 163.437 126.717 163.437 123.16C163.437 122 163.553 120.84 163.785 119.68C163.939 118.133 164.017 117.089 164.017 116.548C164.017 115.311 163.591 114.692 162.741 114.692C161.581 114.692 160.034 116.007 158.101 118.636C156.245 121.188 154.389 124.591 152.533 128.844C150.677 133.097 149.169 137.583 148.009 142.3C147.158 145.935 146.153 148.409 144.993 149.724C143.91 150.961 142.17 151.58 139.773 151.58ZM246.39 115.736C246.622 115.659 247.009 115.62 247.55 115.62C248.71 115.62 249.6 116.007 250.218 116.78C250.837 117.553 251.146 118.597 251.146 119.912C251.146 122.309 250.682 124.204 249.754 125.596C248.826 126.911 247.434 127.877 245.578 128.496C242.021 129.656 238.232 130.236 234.21 130.236C230.808 130.236 227.598 129.772 224.582 128.844C222.34 132.479 219.865 136.229 217.158 140.096C214.065 144.504 211.397 147.52 209.154 149.144C206.912 150.768 204.36 151.58 201.498 151.58C198.328 151.58 195.814 150.343 193.958 147.868C192.18 145.393 191.058 141.488 190.594 136.152C189.666 125.325 189.202 115.852 189.202 107.732V103.672C189.28 101.12 189.976 99.3413 191.29 98.336C192.605 97.3307 194.577 96.828 197.206 96.828C199.217 96.828 200.686 97.292 201.614 98.22C202.62 99.0707 203.122 100.54 203.122 102.628C203.122 111.521 203.664 123.083 204.746 137.312C209.386 130.429 212.866 124.939 215.186 120.84C214.026 118.597 213.446 115.929 213.446 112.836C213.446 110.207 214.026 107.655 215.186 105.18C216.346 102.705 217.932 100.695 219.942 99.148C221.953 97.6013 224.234 96.828 226.786 96.828C229.029 96.828 230.846 97.64 232.238 99.264C233.63 100.811 234.326 103.092 234.326 106.108C234.326 109.588 233.398 113.571 231.542 118.056C234.481 117.901 238.386 117.321 243.258 116.316L246.39 115.736ZM256.276 89.288C253.028 89.288 250.592 88.5533 248.968 87.084C247.344 85.5373 246.532 83.4107 246.532 80.704C246.532 77.9973 247.576 75.7547 249.664 73.976C251.829 72.12 254.497 71.192 257.668 71.192C260.529 71.192 262.849 71.888 264.628 73.28C266.406 74.672 267.296 76.644 267.296 79.196C267.296 82.2893 266.29 84.764 264.28 86.62C262.269 88.3987 259.601 89.288 256.276 89.288ZM255.348 151.58C250.321 151.58 246.648 149.801 244.328 146.244C242.085 142.687 240.964 137.969 240.964 132.092C240.964 128.612 241.389 124.165 242.24 118.752C243.168 113.261 244.328 108.157 245.72 103.44C246.416 100.965 247.344 99.264 248.504 98.336C249.664 97.408 251.52 96.944 254.072 96.944C258.016 96.944 259.988 98.2587 259.988 100.888C259.988 102.821 259.253 107.307 257.784 114.344C255.928 122.851 255 128.612 255 131.628C255 133.948 255.309 135.727 255.928 136.964C256.546 138.201 257.59 138.82 259.06 138.82C260.452 138.82 262.192 137.853 264.28 135.92C266.368 133.987 269.152 130.932 272.632 126.756C273.56 125.673 274.604 125.132 275.764 125.132C276.769 125.132 277.542 125.596 278.084 126.524C278.702 127.452 279.012 128.728 279.012 130.352C279.012 133.445 278.277 135.843 276.808 137.544C269.152 146.901 261.998 151.58 255.348 151.58ZM335.515 125.132C336.52 125.132 337.293 125.596 337.835 126.524C338.453 127.452 338.763 128.728 338.763 130.352C338.763 133.445 338.028 135.843 336.559 137.544C333.388 141.411 329.908 144.736 326.119 147.52C322.329 150.227 318.579 151.58 314.867 151.58C308.989 151.58 304.504 148.139 301.411 141.256C298.163 145.355 295.301 148.1 292.827 149.492C290.429 150.884 287.607 151.58 284.359 151.58C279.641 151.58 275.736 149.84 272.643 146.36C269.627 142.803 268.119 138.201 268.119 132.556C268.119 126.369 269.433 120.647 272.063 115.388C274.692 110.052 278.288 105.721 282.851 102.396C287.491 98.9933 292.672 96.9827 298.395 96.364C299.864 81.3613 302.648 68.5627 306.747 57.968C310.923 47.296 316.375 41.96 323.103 41.96C326.428 41.96 329.173 43.468 331.339 46.484C333.581 49.5 334.703 54.0627 334.703 60.172C334.703 68.8333 332.576 78.964 328.323 90.564C324.069 102.164 318.385 114.073 311.271 126.292C311.58 130.777 312.237 133.987 313.243 135.92C314.325 137.853 315.679 138.82 317.303 138.82C319.391 138.82 321.517 137.892 323.683 136.036C325.848 134.18 328.748 131.087 332.383 126.756C333.311 125.673 334.355 125.132 335.515 125.132ZM321.827 53.328C320.357 53.328 318.888 55.9573 317.419 61.216C315.949 66.3973 314.673 73.2027 313.591 81.632C312.585 90.0613 311.851 98.8773 311.387 108.08C320.048 89.2107 324.379 74.0533 324.379 62.608C324.379 59.6693 324.108 57.388 323.567 55.764C323.103 54.14 322.523 53.328 321.827 53.328ZM288.419 139.864C289.888 139.864 291.357 139.284 292.827 138.124C294.296 136.887 296.152 134.644 298.395 131.396C297.621 127.22 297.235 122.541 297.235 117.36C297.235 115.504 297.312 112.488 297.467 108.312C293.213 109.627 289.656 112.488 286.795 116.896C284.011 121.227 282.619 126.06 282.619 131.396C282.619 137.041 284.552 139.864 288.419 139.864ZM388.486 115.388C389.491 115.388 390.264 115.891 390.806 116.896C391.347 117.901 391.618 119.177 391.618 120.724C391.618 124.436 390.496 126.64 388.254 127.336C383.614 128.96 378.51 129.888 372.942 130.12C371.472 136.616 368.572 141.836 364.242 145.78C359.911 149.647 355 151.58 349.51 151.58C344.87 151.58 340.887 150.459 337.562 148.216C334.314 145.973 331.839 142.996 330.138 139.284C328.436 135.572 327.586 131.551 327.586 127.22C327.586 121.343 328.707 116.123 330.95 111.56C333.192 106.92 336.286 103.324 340.23 100.772C344.174 98.1427 348.543 96.828 353.338 96.828C359.215 96.828 363.932 98.8773 367.49 102.976C371.124 106.997 373.251 111.985 373.87 117.94C377.504 117.708 381.835 116.935 386.862 115.62C387.48 115.465 388.022 115.388 388.486 115.388ZM350.438 139.284C352.912 139.284 355.039 138.279 356.818 136.268C358.674 134.257 359.911 131.357 360.53 127.568C358.132 125.944 356.276 123.817 354.962 121.188C353.724 118.559 353.106 115.775 353.106 112.836C353.106 111.599 353.222 110.361 353.454 109.124H352.874C349.78 109.124 347.19 110.632 345.102 113.648C343.091 116.587 342.086 120.763 342.086 126.176C342.086 130.429 342.898 133.677 344.522 135.92C346.223 138.163 348.195 139.284 350.438 139.284ZM428.526 112.836C430.227 112.836 431.658 113.455 432.818 114.692C434.055 115.852 434.674 117.321 434.674 119.1C434.674 120.105 434.442 121.188 433.978 122.348C432.74 125.209 431 127.607 428.758 129.54C426.515 131.473 424.04 132.44 421.334 132.44C419.168 132.44 417.312 131.667 415.766 130.12C414.296 128.573 413.562 126.485 413.562 123.856C413.562 122.387 413.639 120.801 413.794 119.1C413.948 117.863 414.026 117.012 414.026 116.548C414.026 115.929 413.871 115.465 413.562 115.156C413.33 114.847 413.02 114.692 412.634 114.692C411.551 114.692 410.082 116.007 408.226 118.636C406.37 121.188 404.514 124.591 402.658 128.844C400.802 133.097 399.294 137.583 398.134 142.3C397.283 146.012 396.316 148.487 395.234 149.724C394.151 150.961 392.372 151.58 389.898 151.58C386.959 151.58 384.871 150.033 383.634 146.94C382.474 143.847 381.894 138.897 381.894 132.092C381.894 122.039 383.324 112.488 386.186 103.44C386.882 101.197 388.003 99.5733 389.55 98.568C391.174 97.4853 393.416 96.944 396.278 96.944C397.824 96.944 398.907 97.1373 399.526 97.524C400.144 97.9107 400.454 98.6453 400.454 99.728C400.454 100.965 399.874 103.749 398.714 108.08C397.94 111.173 397.322 113.88 396.858 116.2C396.394 118.52 396.007 121.381 395.698 124.784C398.25 118.133 401.111 112.72 404.282 108.544C407.452 104.368 410.546 101.391 413.562 99.612C416.578 97.8333 419.323 96.944 421.798 96.944C424.04 96.944 425.742 97.6013 426.902 98.916C428.139 100.153 428.758 102.009 428.758 104.484C428.758 105.953 428.332 108.737 427.482 112.836H428.526Z" fill="black"/>
<path d="M13.224 146.128L12.6864 146.971L12.694 146.976L13.224 146.128ZM6.148 118.404L5.31154 117.856L5.31154 117.856L6.148 118.404ZM17.748 116.664L18.3837 115.892L18.3837 115.892L17.748 116.664ZM19.372 124.9L18.3914 124.704L18.372 124.801V124.9H19.372ZM19.14 126.524L18.1594 126.328L18.1498 126.376L18.145 126.424L19.14 126.524ZM24.244 136.732L23.8048 137.63L23.8125 137.634L24.244 136.732ZM54.52 135.804L55.05 136.652L55.0563 136.648L55.0625 136.644L54.52 135.804ZM57.536 119.1L56.7853 119.761L56.792 119.768L56.7988 119.776L57.536 119.1ZM51.156 114.344L50.698 115.233L50.7088 115.239L50.7197 115.244L51.156 114.344ZM40.368 109.588L40.7394 108.659L40.731 108.656L40.368 109.588ZM25.752 102.976L25.2617 103.848L25.2694 103.852L25.752 102.976ZM16.124 94.508L15.3138 95.0941L15.3209 95.1039L15.3282 95.1135L16.124 94.508ZM16.588 66.204L15.7673 65.6325L15.7605 65.6425L16.588 66.204ZM29.464 56.112L29.0731 55.1915L29.0685 55.1935L29.464 56.112ZM64.844 55.068L64.5047 56.0087L64.5116 56.0112L64.5185 56.0135L64.844 55.068ZM76.096 62.608L75.322 63.2413L75.3306 63.2516L76.096 62.608ZM66.584 88.012L65.8986 88.7402L65.909 88.7499L65.9196 88.7594L66.584 88.012ZM64.96 79.544L65.9429 79.7283L65.9508 79.6861L65.955 79.6435L64.96 79.544ZM60.552 67.712L61.0248 66.8308L61.0248 66.8308L60.552 67.712ZM33.408 68.872L33.9753 69.6955L33.9791 69.6929L33.408 68.872ZM30.856 86.62L30.0948 87.2685L30.1016 87.2765L30.1086 87.2844L30.856 86.62ZM37.7 91.84L38.1574 90.9507L38.1573 90.9507L37.7 91.84ZM49.068 96.828L49.4457 95.902L49.4368 95.8985L49.068 96.828ZM72.268 111.212L71.4658 111.809L71.4702 111.815L71.4747 111.821L72.268 111.212ZM65.656 144.62L66.2338 145.436L66.2355 145.435L65.656 144.62ZM37.932 150.928C27.7608 150.928 19.7293 149.015 13.754 145.28L12.694 146.976C19.092 150.975 27.5326 152.928 37.932 152.928V150.928ZM13.7616 145.285C7.89447 141.545 4.944 135.888 4.944 128.148H2.944C2.944 136.493 6.1802 142.823 12.6864 146.971L13.7616 145.285ZM4.944 128.148C4.944 123.985 5.66747 120.962 6.98446 118.952L5.31154 117.856C3.68986 120.331 2.944 123.805 2.944 128.148H4.944ZM6.98446 118.952C8.25465 117.013 10.0928 116.04 12.644 116.04V114.04C9.47253 114.04 6.98001 115.309 5.31154 117.856L6.98446 118.952ZM12.644 116.04C14.5542 116.04 16.0145 116.532 17.1123 117.436L18.3837 115.892C16.8522 114.631 14.9098 114.04 12.644 114.04V116.04ZM17.1123 117.436C18.1966 118.329 18.72 119.438 18.72 120.84H20.72C20.72 118.839 19.9288 117.164 18.3837 115.892L17.1123 117.436ZM18.72 120.84C18.72 122.34 18.6073 123.625 18.3914 124.704L20.3526 125.096C20.6007 123.855 20.72 122.434 20.72 120.84H18.72ZM18.372 124.9C18.372 125.098 18.315 125.55 18.1594 126.328L20.1206 126.72C20.2743 125.951 20.372 125.32 20.372 124.9H18.372ZM18.145 126.424C18.064 127.234 18.024 128.079 18.024 128.96H20.024C20.024 128.139 20.0613 127.361 20.135 126.624L18.145 126.424ZM18.024 128.96C18.024 130.875 18.5056 132.592 19.4989 134.071C20.488 135.543 21.9445 136.721 23.8048 137.63L24.6832 135.834C23.0635 135.042 21.91 134.073 21.1591 132.955C20.4124 131.844 20.024 130.525 20.024 128.96H18.024ZM23.8125 137.634C27.5621 139.427 32.682 140.284 39.092 140.284V138.284C32.8194 138.284 28.0405 137.439 24.6755 135.83L23.8125 137.634ZM39.092 140.284C45.7651 140.284 51.1183 139.109 55.05 136.652L53.99 134.956C50.4977 137.139 45.5655 138.284 39.092 138.284V140.284ZM55.0625 136.644C59.0464 134.071 61.088 130.436 61.088 125.828H59.088C59.088 129.726 57.4176 132.742 53.9775 134.964L55.0625 136.644ZM61.088 125.828C61.088 122.961 60.1516 120.473 58.2732 118.424L56.7988 119.776C58.3231 121.438 59.088 123.437 59.088 125.828H61.088ZM58.2867 118.439C56.489 116.397 54.2518 114.734 51.5923 113.444L50.7197 115.244C53.1642 116.429 55.1803 117.937 56.7853 119.761L58.2867 118.439ZM51.614 113.455C49.0205 112.119 45.3907 110.52 40.7394 108.66L39.9966 110.516C44.6253 112.368 48.1875 113.94 50.698 115.233L51.614 113.455ZM40.731 108.656C34.8 106.345 29.9719 104.159 26.2346 102.1L25.2694 103.852C29.1108 105.969 34.0266 108.191 40.005 110.52L40.731 108.656ZM26.2423 102.104C22.6551 100.087 19.548 97.3567 16.9198 93.9025L15.3282 95.1135C18.1133 98.774 21.4249 101.689 25.2617 103.848L26.2423 102.104ZM16.9342 93.9219C14.4503 90.4882 13.18 86.2185 13.18 81.052H11.18C11.18 86.5575 12.5391 91.2585 15.3138 95.0941L16.9342 93.9219ZM13.18 81.052C13.18 75.6707 14.5966 70.9197 17.4155 66.7655L15.7605 65.6425C12.7021 70.1496 11.18 75.2973 11.18 81.052H13.18ZM17.4086 66.7755C20.3029 62.6196 24.4367 59.3653 29.8595 57.0305L29.0685 55.1935C23.3553 57.6534 18.9051 61.1271 15.7674 65.6325L17.4086 66.7755ZM29.8549 57.0324C35.3511 54.6984 41.8249 53.516 49.3 53.516V51.516C41.6177 51.516 34.8675 52.7309 29.0731 55.1916L29.8549 57.0324ZM49.3 53.516C54.8441 53.516 59.909 54.3512 64.5047 56.0087L65.1833 54.1273C60.3444 52.3821 55.0466 51.516 49.3 51.516V53.516ZM64.5185 56.0135C69.0845 57.5854 72.6709 60.0009 75.322 63.2412L76.87 61.9748C73.9531 58.4097 70.0382 55.7986 65.1695 54.1225L64.5185 56.0135ZM75.3306 63.2516C78.0231 66.4534 79.388 70.3937 79.388 75.136H81.388C81.388 69.9797 79.8916 65.5679 76.8614 61.9644L75.3306 63.2516ZM79.388 75.136C79.388 79.9382 78.6584 83.3983 77.3241 85.6455L79.0439 86.6665C80.6483 83.9644 81.388 80.0778 81.388 75.136H79.388ZM77.3241 85.6455C76.0337 87.8189 74.1939 88.868 71.688 88.868V90.868C74.9048 90.868 77.3956 89.4425 79.0439 86.6665L77.3241 85.6455ZM71.688 88.868C69.9011 88.868 68.4421 88.3257 67.2484 87.2646L65.9196 88.7594C67.5099 90.173 69.4536 90.868 71.688 90.868V88.868ZM67.2694 87.2838C66.1417 86.2225 65.612 85.0113 65.612 83.604H63.612C63.612 85.5994 64.3969 87.3268 65.8986 88.7402L67.2694 87.2838ZM65.612 83.604C65.612 82.1865 65.724 80.8958 65.9429 79.7283L63.9771 79.3597C63.732 80.6669 63.612 82.0828 63.612 83.604H65.612ZM65.955 79.6435C66.1854 77.34 66.308 75.8153 66.308 75.136H64.308C64.308 75.694 64.1986 77.1079 63.965 79.4445L65.955 79.6435ZM66.308 75.136C66.308 73.3416 65.8675 71.7196 64.961 70.3046C64.0579 68.8949 62.7269 67.7442 61.0248 66.8308L60.0792 68.5932C61.5478 69.3812 62.5947 70.3185 63.277 71.3834C63.9558 72.4431 64.308 73.6824 64.308 75.136H66.308ZM61.0248 66.8308C57.6706 65.031 53.5527 64.16 48.72 64.16V66.16C53.3219 66.16 57.0921 66.9903 60.0792 68.5932L61.0248 66.8308ZM48.72 64.16C41.9671 64.16 36.6296 65.4127 32.8369 68.0511L33.9791 69.6929C37.301 67.382 42.1715 66.16 48.72 66.16V64.16ZM32.8407 68.0485C29.0762 70.6418 27.188 74.3599 27.188 79.08H29.188C29.188 74.9841 30.7798 71.8968 33.9753 69.6955L32.8407 68.0485ZM27.188 79.08C27.188 82.238 28.1505 84.9861 30.0948 87.2685L31.6172 85.9715C30.0042 84.0779 29.188 81.7993 29.188 79.08H27.188ZM30.1086 87.2844C32.0536 89.4725 34.4361 91.2859 37.2427 92.7293L38.1573 90.9507C35.5506 89.6101 33.3704 87.9435 31.6034 85.9556L30.1086 87.2844ZM37.2427 92.7293C39.9914 94.1429 43.8152 95.8194 48.6992 97.7575L49.4368 95.8985C44.5768 93.9699 40.8219 92.321 38.1574 90.9507L37.2427 92.7293ZM48.6903 97.7539C54.5503 100.144 59.2303 102.294 62.7425 104.203L63.6975 102.445C60.095 100.488 55.3403 98.3065 49.4457 95.9021L48.6903 97.7539ZM62.7425 104.203C66.1694 106.065 69.0755 108.597 71.4658 111.809L73.0702 110.615C70.5111 107.176 67.3853 104.45 63.6975 102.445L62.7425 104.203ZM71.4747 111.821C73.8716 114.944 75.096 118.819 75.096 123.508H77.096C77.096 118.453 75.7684 114.131 73.0613 110.603L71.4747 111.821ZM75.096 123.508C75.096 132.336 71.7521 139.058 65.0765 143.805L66.2355 145.435C73.4799 140.283 77.096 132.931 77.096 123.508H75.096ZM65.0782 143.804C58.4173 148.519 49.4009 150.928 37.932 150.928V152.928C49.6631 152.928 59.1293 150.465 66.2338 145.436L65.0782 143.804ZM140.054 126.524L139.19 127.028L139.205 127.054L139.222 127.079L140.054 126.524ZM138.778 137.544L138.021 136.89L138.013 136.9L138.005 136.909L138.778 137.544ZM126.598 147.172L126.11 146.299L126.104 146.302L126.598 147.172ZM90.9857 144.968L91.6866 144.255L91.6866 144.255L90.9857 144.968ZM87.6217 112.024L88.5192 112.465L88.522 112.459L87.6217 112.024ZM96.9017 101.004L96.3433 100.174L96.3358 100.179L96.9017 101.004ZM121.262 101.004L120.555 101.711L120.56 101.716L120.565 101.721L121.262 101.004ZM119.522 125.596L118.815 124.889L118.815 124.889L119.522 125.596ZM100.15 134.644L99.911 133.673L98.6519 133.982L99.2711 135.122L100.15 134.644ZM123.002 136.384L123.479 137.262L123.485 137.26L123.002 136.384ZM134.602 126.756L133.842 126.105L133.836 126.113L133.83 126.12L134.602 126.756ZM101.194 113.3L100.338 112.783L100.334 112.79L100.329 112.797L101.194 113.3ZM98.2937 125.596H97.2937V126.861L98.5246 126.569L98.2937 125.596ZM109.082 120.724L108.446 119.952L108.446 119.952L109.082 120.724ZM111.75 109.704L110.981 110.344L111.011 110.379L111.043 110.411L111.75 109.704ZM137.734 126.132C138.355 126.132 138.813 126.381 139.19 127.028L140.917 126.02C140.212 124.811 139.124 124.132 137.734 124.132V126.132ZM139.222 127.079C139.691 127.783 139.982 128.84 139.982 130.352H141.982C141.982 128.616 141.653 127.121 140.886 125.969L139.222 127.079ZM139.982 130.352C139.982 133.296 139.283 135.429 138.021 136.89L139.535 138.198C141.211 136.256 141.982 133.595 141.982 130.352H139.982ZM138.005 136.909C135.245 140.266 131.294 143.402 126.11 146.299L127.086 148.045C132.418 145.065 136.588 141.782 139.55 138.179L138.005 136.909ZM126.104 146.302C121.073 149.156 115.675 150.58 109.894 150.58V152.58C116.021 152.58 121.759 151.066 127.091 148.042L126.104 146.302ZM109.894 150.58C101.956 150.58 95.935 148.43 91.6866 144.255L90.2848 145.681C95.0071 150.322 101.591 152.58 109.894 152.58V150.58ZM91.6866 144.255C87.4329 140.074 85.2577 134.322 85.2577 126.872H83.2577C83.2577 134.734 85.5678 141.046 90.2848 145.681L91.6866 144.255ZM85.2577 126.872C85.2577 121.681 86.3473 116.884 88.5191 112.465L86.7242 111.583C84.4108 116.29 83.2577 121.391 83.2577 126.872H85.2577ZM88.522 112.459C90.695 107.963 93.6781 104.429 97.4675 101.829L96.3358 100.179C92.2373 102.992 89.0337 106.805 86.7213 111.589L88.522 112.459ZM97.4601 101.834C101.31 99.2423 105.638 97.944 110.474 97.944V95.944C105.256 95.944 100.536 97.3524 96.3433 100.174L97.4601 101.834ZM110.474 97.944C114.743 97.944 118.068 99.2241 120.555 101.711L121.969 100.297C119.042 97.3706 115.175 95.944 110.474 95.944V97.944ZM120.565 101.721C123.038 104.124 124.322 107.439 124.322 111.792H126.322C126.322 107.02 124.899 103.143 121.958 100.287L120.565 101.721ZM124.322 111.792C124.322 116.856 122.499 121.205 118.815 124.889L120.229 126.303C124.278 122.254 126.322 117.4 126.322 111.792H124.322ZM118.815 124.889C115.219 128.485 108.975 131.445 99.911 133.673L100.388 135.615C109.575 133.357 116.246 130.286 120.229 126.303L118.815 124.889ZM99.2711 135.122C101.438 139.109 105.532 140.98 111.17 140.98V138.98C105.981 138.98 102.728 137.294 101.028 134.166L99.2711 135.122ZM111.17 140.98C114.874 140.98 118.985 139.707 123.479 137.262L122.524 135.506C118.202 137.856 114.425 138.98 111.17 138.98V140.98ZM123.485 137.26C128.08 134.724 132.045 131.433 135.374 127.392L133.83 126.12C130.662 129.967 126.894 133.095 122.519 135.508L123.485 137.26ZM135.361 127.407C136.146 126.49 136.931 126.132 137.734 126.132V124.132C136.216 124.132 134.913 124.856 133.842 126.105L135.361 127.407ZM108.502 107.312C105.17 107.312 102.457 109.278 100.338 112.783L102.049 113.817C103.952 110.671 106.111 109.312 108.502 109.312V107.312ZM100.329 112.797C98.2891 116.306 97.2937 120.51 97.2937 125.364H99.2937C99.2937 120.783 100.232 116.944 102.058 113.803L100.329 112.797ZM97.2937 125.364V125.596H99.2937V125.364H97.2937ZM98.5246 126.569C103.183 125.464 106.934 123.788 109.717 121.496L108.446 119.952C105.97 121.991 102.53 123.563 98.0628 124.623L98.5246 126.569ZM109.717 121.496C112.529 119.181 114.026 116.402 114.026 113.184H112.026C112.026 115.689 110.893 117.937 108.446 119.952L109.717 121.496ZM114.026 113.184C114.026 111.512 113.535 110.075 112.457 108.997L111.043 110.411C111.666 111.034 112.026 111.917 112.026 113.184H114.026ZM112.518 109.064C111.524 107.872 110.14 107.312 108.502 107.312V109.312C109.647 109.312 110.428 109.68 110.981 110.344L112.518 109.064ZM133.509 146.94L132.572 147.291L132.576 147.301L132.58 147.311L133.509 146.94ZM136.061 103.44L137.014 103.742L137.016 103.736L136.061 103.44ZM139.425 98.568L139.97 99.4065L139.979 99.4L139.425 98.568ZM148.589 108.08L147.623 107.821L147.621 107.829L147.619 107.837L148.589 108.08ZM145.573 124.784L144.577 124.693L146.506 125.142L145.573 124.784ZM154.157 108.544L153.36 107.939L153.36 107.939L154.157 108.544ZM163.437 99.612L162.938 98.745L162.929 98.7506L163.437 99.612ZM178.401 111.792L179.381 111.988L179.383 111.979L179.385 111.969L178.401 111.792ZM188.725 116.548L188.018 115.841L188.018 115.841L188.725 116.548ZM194.177 116.432L193.313 116.936L193.338 116.979L193.368 117.02L194.177 116.432ZM192.785 126.64L193.504 127.335L193.509 127.33L192.785 126.64ZM185.129 132.44L185.604 133.32L185.612 133.315L185.129 132.44ZM166.569 131.628L165.862 132.335L165.868 132.342L165.875 132.348L166.569 131.628ZM163.785 119.68L164.765 119.876L164.775 119.828L164.78 119.78L163.785 119.68ZM158.101 118.636L157.295 118.044L157.292 118.048L158.101 118.636ZM152.533 128.844L151.616 128.444L151.616 128.444L152.533 128.844ZM148.009 142.3L147.038 142.061L147.035 142.072L148.009 142.3ZM144.993 149.724L144.243 149.062L144.24 149.065L144.993 149.724ZM139.773 150.58C138.488 150.58 137.448 150.246 136.598 149.616C135.74 148.981 135.006 147.991 134.437 146.569L132.58 147.311C133.249 148.982 134.178 150.313 135.408 151.224C136.646 152.141 138.118 152.58 139.773 152.58V150.58ZM134.445 146.589C133.352 143.674 132.769 138.877 132.769 132.092H130.769C130.769 138.918 131.346 144.02 132.572 147.291L134.445 146.589ZM132.769 132.092C132.769 122.135 134.186 112.686 137.014 103.742L135.107 103.138C132.213 112.29 130.769 121.942 130.769 132.092H132.769ZM137.016 103.736C137.662 101.655 138.667 100.253 139.97 99.4064L138.88 97.7296C137.089 98.8936 135.852 100.74 135.106 103.144L137.016 103.736ZM139.979 99.4C141.379 98.4669 143.402 97.944 146.153 97.944V95.944C143.181 95.944 140.718 96.5038 138.87 97.7359L139.979 99.4ZM146.153 97.944C147.679 97.944 148.51 98.1465 148.871 98.372L149.931 96.676C149.054 96.1282 147.719 95.944 146.153 95.944V97.944ZM148.871 98.372C149.072 98.4976 149.329 98.8105 149.329 99.728H151.329C151.329 98.4801 150.967 97.3237 149.931 96.676L148.871 98.372ZM149.329 99.728C149.329 100.234 149.204 101.151 148.915 102.54C148.63 103.906 148.2 105.665 147.623 107.821L149.555 108.339C150.137 106.164 150.577 104.366 150.873 102.948C151.163 101.553 151.329 100.459 151.329 99.728H149.329ZM147.619 107.837C146.843 110.941 146.22 113.664 145.752 116.004L147.713 116.396C148.173 114.096 148.788 111.405 149.559 108.323L147.619 107.837ZM145.752 116.004C145.279 118.37 144.888 121.269 144.577 124.693L146.569 124.875C146.876 121.493 147.259 118.67 147.713 116.396L145.752 116.004ZM146.506 125.142C149.036 118.551 151.856 113.228 154.953 109.149L153.36 107.939C150.116 112.212 147.214 117.716 144.639 124.426L146.506 125.142ZM154.953 109.149C158.081 105.03 161.082 102.162 163.945 100.473L162.929 98.7506C159.76 100.62 156.574 103.706 153.36 107.939L154.953 109.149ZM163.935 100.479C166.934 98.7544 169.584 97.944 171.905 97.944V95.944C169.122 95.944 166.126 96.9122 162.938 98.7451L163.935 100.479ZM171.905 97.944C174.264 97.944 175.85 98.5331 176.853 99.5361C177.856 100.539 178.445 102.125 178.445 104.484H180.445C180.445 101.817 179.777 99.6322 178.267 98.1219C176.757 96.6115 174.572 95.944 171.905 95.944V97.944ZM178.445 104.484C178.445 105.38 178.118 107.716 177.417 111.615L179.385 111.969C180.075 108.134 180.445 105.599 180.445 104.484H178.445ZM177.42 111.596C177.11 113.149 176.875 114.419 176.717 115.404C176.563 116.368 176.473 117.116 176.473 117.592H178.473C178.473 117.294 178.537 116.69 178.692 115.72C178.844 114.771 179.073 113.529 179.381 111.988L177.42 111.596ZM176.473 117.592C176.473 119.034 176.725 120.295 177.384 121.218C178.087 122.203 179.143 122.652 180.373 122.652V120.652C179.669 120.652 179.275 120.424 179.011 120.056C178.704 119.625 178.473 118.856 178.473 117.592H176.473ZM180.373 122.652C181.71 122.652 183.131 122.131 184.606 121.229C186.089 120.323 187.698 118.989 189.432 117.255L188.018 115.841C186.348 117.51 184.864 118.728 183.563 119.523C182.254 120.323 181.201 120.652 180.373 120.652V122.652ZM189.432 117.255C190.311 116.376 191.115 116.04 191.857 116.04V114.04C190.434 114.04 189.15 114.709 188.018 115.841L189.432 117.255ZM191.857 116.04C192.478 116.04 192.936 116.289 193.313 116.936L195.041 115.928C194.335 114.719 193.247 114.04 191.857 114.04V116.04ZM193.368 117.02C193.822 117.644 194.105 118.572 194.105 119.912H196.105C196.105 118.313 195.769 116.921 194.985 115.844L193.368 117.02ZM194.105 119.912C194.105 122.59 193.385 124.56 192.061 125.95L193.509 127.33C195.278 125.472 196.105 122.956 196.105 119.912H194.105ZM192.065 125.945C189.974 128.111 187.503 129.985 184.645 131.565L185.612 133.315C188.632 131.647 191.265 129.654 193.504 127.335L192.065 125.945ZM184.653 131.56C181.938 133.028 179.046 133.76 175.965 133.76V135.76C179.379 135.76 182.597 134.945 185.604 133.32L184.653 131.56ZM175.965 133.76C172.029 133.76 169.183 132.759 167.263 130.908L165.875 132.348C168.285 134.673 171.703 135.76 175.965 135.76V133.76ZM167.276 130.921C165.413 129.058 164.437 126.51 164.437 123.16H162.437C162.437 126.925 163.549 130.022 165.862 132.335L167.276 130.921ZM164.437 123.16C164.437 122.067 164.546 120.973 164.765 119.876L162.804 119.484C162.56 120.707 162.437 121.933 162.437 123.16H164.437ZM164.78 119.78C164.934 118.24 165.017 117.147 165.017 116.548H163.017C163.017 117.032 162.945 118.027 162.79 119.58L164.78 119.78ZM165.017 116.548C165.017 115.846 164.902 115.142 164.522 114.589C164.095 113.969 163.444 113.692 162.741 113.692V115.692C162.787 115.692 162.818 115.696 162.836 115.7C162.855 115.704 162.862 115.708 162.863 115.708C162.863 115.708 162.863 115.708 162.862 115.707C162.862 115.707 162.861 115.707 162.861 115.707C162.861 115.707 162.861 115.706 162.861 115.706C162.861 115.706 162.861 115.707 162.862 115.707C162.862 115.708 162.863 115.708 162.864 115.71C162.866 115.712 162.869 115.716 162.874 115.723C162.919 115.789 163.017 116.013 163.017 116.548H165.017ZM162.741 113.692C161.801 113.692 160.895 114.209 160.063 114.916C159.206 115.644 158.284 116.699 157.295 118.044L158.906 119.228C159.851 117.943 160.669 117.026 161.358 116.44C162.074 115.832 162.52 115.692 162.741 115.692V113.692ZM157.292 118.048C155.379 120.679 153.489 124.152 151.616 128.444L153.449 129.244C155.288 125.029 157.111 121.697 158.909 119.224L157.292 118.048ZM151.616 128.444C149.736 132.752 148.211 137.291 147.038 142.061L148.98 142.539C150.127 137.874 151.617 133.443 153.449 129.244L151.616 128.444ZM147.035 142.072C146.189 145.689 145.226 147.948 144.243 149.062L145.743 150.386C147.079 148.871 148.128 146.181 148.982 142.528L147.035 142.072ZM144.24 149.065C143.421 150.002 142.017 150.58 139.773 150.58V152.58C142.324 152.58 144.399 151.921 145.745 150.383L144.24 149.065ZM246.39 115.736L246.572 116.719L246.641 116.707L246.707 116.685L246.39 115.736ZM249.754 125.596L250.571 126.173L250.579 126.162L250.586 126.151L249.754 125.596ZM245.578 128.496L245.888 129.447L245.895 129.445L245.578 128.496ZM224.582 128.844L224.876 127.888L224.137 127.661L223.731 128.319L224.582 128.844ZM217.158 140.096L217.977 140.67L217.978 140.669L217.158 140.096ZM209.154 149.144L209.741 149.954L209.741 149.954L209.154 149.144ZM193.958 147.868L193.146 148.452L193.152 148.46L193.158 148.468L193.958 147.868ZM190.594 136.152L189.598 136.237L189.598 136.239L190.594 136.152ZM189.202 103.672L188.203 103.642L188.202 103.657V103.672H189.202ZM191.29 98.336L190.683 97.5416L190.683 97.5416L191.29 98.336ZM201.614 98.22L200.907 98.9271L200.937 98.9565L200.968 98.9834L201.614 98.22ZM204.746 137.312L203.749 137.388L203.967 140.256L205.576 137.871L204.746 137.312ZM215.186 120.84L216.057 121.333L216.323 120.861L216.075 120.381L215.186 120.84ZM215.186 105.18L216.092 105.604L216.092 105.604L215.186 105.18ZM219.942 99.148L219.333 98.3554L219.333 98.3554L219.942 99.148ZM232.238 99.264L231.479 99.9148L231.487 99.924L231.495 99.933L232.238 99.264ZM231.542 118.056L230.618 117.674L230.012 119.138L231.595 119.055L231.542 118.056ZM243.258 116.316L243.076 115.333L243.066 115.335L243.056 115.337L243.258 116.316ZM246.707 116.685C246.773 116.663 247.018 116.62 247.55 116.62V114.62C247 114.62 246.472 114.655 246.074 114.787L246.707 116.685ZM247.55 116.62C248.465 116.62 249.042 116.911 249.437 117.405L250.999 116.155C250.157 115.103 248.956 114.62 247.55 114.62V116.62ZM249.437 117.405C249.874 117.95 250.146 118.75 250.146 119.912H252.146C252.146 118.445 251.8 117.157 250.999 116.155L249.437 117.405ZM250.146 119.912C250.146 122.194 249.703 123.87 248.922 125.041L250.586 126.151C251.662 124.538 252.146 122.425 252.146 119.912H250.146ZM248.937 125.019C248.157 126.125 246.96 126.981 245.262 127.547L245.895 129.445C247.908 128.773 249.496 127.696 250.571 126.173L248.937 125.019ZM245.268 127.545C241.818 128.67 238.134 129.236 234.21 129.236V131.236C238.329 131.236 242.224 130.642 245.888 129.447L245.268 127.545ZM234.21 129.236C230.9 129.236 227.79 128.785 224.876 127.888L224.288 129.8C227.407 130.759 230.716 131.236 234.21 131.236V129.236ZM223.731 128.319C221.5 131.936 219.036 135.67 216.339 139.523L217.978 140.669C220.694 136.789 223.18 133.022 225.433 129.369L223.731 128.319ZM216.34 139.522C213.262 143.908 210.671 146.811 208.568 148.334L209.741 149.954C212.123 148.229 214.868 145.1 217.977 140.67L216.34 139.522ZM208.568 148.334C206.502 149.83 204.157 150.58 201.498 150.58V152.58C204.563 152.58 207.322 151.706 209.741 149.954L208.568 148.334ZM201.498 150.58C198.633 150.58 196.42 149.484 194.758 147.268L193.158 148.468C195.209 151.202 198.022 152.58 201.498 152.58V150.58ZM194.77 147.284C193.149 145.029 192.049 141.34 191.591 136.065L189.598 136.239C190.067 141.636 191.21 145.758 193.146 148.452L194.77 147.284ZM191.591 136.067C190.664 125.26 190.202 115.816 190.202 107.732H188.202C188.202 115.888 188.668 125.391 189.598 136.237L191.591 136.067ZM190.202 107.732V103.672H188.202V107.732H190.202ZM190.202 103.702C190.275 101.286 190.928 99.872 191.898 99.1304L190.683 97.5416C189.023 98.8106 188.284 100.954 188.203 103.642L190.202 103.702ZM191.898 99.1304C192.962 98.3166 194.676 97.828 197.206 97.828V95.828C194.478 95.828 192.248 96.3447 190.683 97.5416L191.898 99.1304ZM197.206 97.828C199.09 97.828 200.246 98.2659 200.907 98.9271L202.321 97.5129C201.127 96.3181 199.344 95.828 197.206 95.828V97.828ZM200.968 98.9834C201.645 99.5561 202.122 100.663 202.122 102.628H204.122C204.122 100.417 203.594 98.5853 202.26 97.4566L200.968 98.9834ZM202.122 102.628C202.122 111.557 202.666 123.146 203.749 137.388L205.743 137.236C204.662 123.019 204.122 111.486 204.122 102.628H202.122ZM205.576 137.871C210.221 130.98 213.718 125.465 216.057 121.333L214.316 120.347C212.015 124.413 208.552 129.878 203.917 136.753L205.576 137.871ZM216.075 120.381C215.003 118.308 214.446 115.805 214.446 112.836H212.446C212.446 116.054 213.05 118.886 214.298 121.299L216.075 120.381ZM214.446 112.836C214.446 110.359 214.992 107.952 216.092 105.604L214.281 104.756C213.061 107.358 212.446 110.054 212.446 112.836H214.446ZM216.092 105.604C217.189 103.263 218.678 101.382 220.552 99.9406L219.333 98.3554C217.186 100.007 215.503 102.148 214.281 104.756L216.092 105.604ZM220.552 99.9406C222.387 98.5293 224.453 97.828 226.786 97.828V95.828C224.015 95.828 221.519 96.6734 219.333 98.3554L220.552 99.9406ZM226.786 97.828C228.753 97.828 230.287 98.5244 231.479 99.9148L232.998 98.6132C231.405 96.7556 229.305 95.828 226.786 95.828V97.828ZM231.495 99.933C232.661 101.228 233.326 103.23 233.326 106.108H235.326C235.326 102.954 234.6 100.393 232.982 98.595L231.495 99.933ZM233.326 106.108C233.326 109.416 232.443 113.265 230.618 117.674L232.466 118.438C234.354 113.876 235.326 109.76 235.326 106.108H233.326ZM231.595 119.055C234.606 118.896 238.568 118.305 243.46 117.295L243.056 115.337C238.205 116.338 234.356 116.907 231.49 117.057L231.595 119.055ZM243.44 117.299L246.572 116.719L246.208 114.753L243.076 115.333L243.44 117.299ZM248.968 87.084L248.278 87.8081L248.287 87.817L248.297 87.8255L248.968 87.084ZM249.664 73.976L250.312 74.7372L250.315 74.7353L249.664 73.976ZM264.628 73.28L264.011 74.0675L264.628 73.28ZM264.28 86.62L264.942 87.369L264.95 87.362L264.958 87.3548L264.28 86.62ZM244.328 146.244L243.482 146.777L243.486 146.784L243.49 146.79L244.328 146.244ZM242.24 118.752L241.254 118.585L241.252 118.597L242.24 118.752ZM245.72 103.44L246.679 103.723L246.682 103.711L245.72 103.44ZM257.784 114.344L258.761 114.557L258.763 114.548L257.784 114.344ZM264.28 135.92L263.6 135.186L263.6 135.186L264.28 135.92ZM272.632 126.756L271.872 126.105L271.864 126.116L272.632 126.756ZM278.084 126.524L277.22 127.028L277.235 127.054L277.252 127.079L278.084 126.524ZM276.808 137.544L276.051 136.89L276.042 136.9L276.034 136.911L276.808 137.544ZM256.276 88.288C253.159 88.288 251.007 87.5808 249.639 86.3425L248.297 87.8255C250.176 89.5259 252.897 90.288 256.276 90.288V88.288ZM249.657 86.3599C248.272 85.0402 247.532 83.198 247.532 80.704H245.532C245.532 83.6234 246.416 86.0344 248.278 87.8081L249.657 86.3599ZM247.532 80.704C247.532 78.2948 248.444 76.3288 250.312 74.7372L249.015 73.2148C246.708 75.1805 245.532 77.6998 245.532 80.704H247.532ZM250.315 74.7353C252.278 73.0522 254.707 72.192 257.668 72.192V70.192C254.287 70.192 251.38 71.1878 249.013 73.2167L250.315 74.7353ZM257.668 72.192C260.366 72.192 262.451 72.8464 264.011 74.0675L265.244 72.4925C263.247 70.9296 260.692 70.192 257.668 70.192V72.192ZM264.011 74.0675C265.514 75.2436 266.296 76.9061 266.296 79.196H268.296C268.296 76.3819 267.299 74.1004 265.244 72.4925L264.011 74.0675ZM266.296 79.196C266.296 82.0504 265.379 84.2441 263.601 85.8852L264.958 87.3548C267.202 85.2838 268.296 82.5282 268.296 79.196H266.296ZM263.617 85.871C261.83 87.4518 259.418 88.288 256.276 88.288V90.288C259.785 90.288 262.708 89.3455 264.942 87.369L263.617 85.871ZM255.348 150.58C250.587 150.58 247.265 148.917 245.165 145.698L243.49 146.79C246.031 150.686 250.055 152.58 255.348 152.58V150.58ZM245.174 145.711C243.064 142.365 241.964 137.853 241.964 132.092H239.964C239.964 138.086 241.106 143.009 243.482 146.777L245.174 145.711ZM241.964 132.092C241.964 128.685 242.381 124.295 243.228 118.907L241.252 118.597C240.397 124.036 239.964 128.539 239.964 132.092H241.964ZM243.226 118.919C244.148 113.462 245.299 108.398 246.679 103.723L244.761 103.157C243.356 107.917 242.187 113.06 241.254 118.585L243.226 118.919ZM246.682 103.711C247.359 101.306 248.213 99.8494 249.128 99.1169L247.879 97.5551C246.475 98.6786 245.473 100.624 244.757 103.169L246.682 103.711ZM249.128 99.1169C250.023 98.4014 251.599 97.944 254.072 97.944V95.944C251.44 95.944 249.305 96.4146 247.879 97.5551L249.128 99.1169ZM254.072 97.944C255.964 97.944 257.209 98.2651 257.954 98.762C258.628 99.2112 258.988 99.8646 258.988 100.888H260.988C260.988 99.282 260.362 97.9634 259.063 97.0979C257.837 96.2802 256.123 95.944 254.072 95.944V97.944ZM258.988 100.888C258.988 102.696 258.281 107.069 256.805 114.14L258.763 114.548C260.225 107.544 260.988 102.947 260.988 100.888H258.988ZM256.807 114.131C254.954 122.622 254 128.487 254 131.628H256C256 128.737 256.901 123.079 258.761 114.557L256.807 114.131ZM254 131.628C254 134.011 254.313 135.971 255.033 137.411L256.822 136.517C256.305 135.482 256 133.885 256 131.628H254ZM255.033 137.411C255.416 138.177 255.955 138.796 256.665 139.216C257.371 139.635 258.183 139.82 259.06 139.82V137.82C258.467 137.82 258.023 137.696 257.685 137.496C257.35 137.297 257.058 136.988 256.822 136.517L255.033 137.411ZM259.06 139.82C260.862 139.82 262.85 138.606 264.959 136.654L263.6 135.186C261.533 137.1 260.042 137.82 259.06 137.82V139.82ZM264.959 136.654C267.095 134.676 269.912 131.581 273.4 127.396L271.864 126.116C268.391 130.283 265.64 133.298 263.6 135.186L264.959 136.654ZM273.391 127.407C274.176 126.49 274.961 126.132 275.764 126.132V124.132C274.246 124.132 272.943 124.856 271.872 126.105L273.391 127.407ZM275.764 126.132C276.385 126.132 276.843 126.381 277.22 127.028L278.947 126.02C278.242 124.811 277.154 124.132 275.764 124.132V126.132ZM277.252 127.079C277.721 127.783 278.012 128.84 278.012 130.352H280.012C280.012 128.616 279.683 127.121 278.916 125.969L277.252 127.079ZM278.012 130.352C278.012 133.296 277.313 135.429 276.051 136.89L277.565 138.198C279.241 136.256 280.012 133.595 280.012 130.352H278.012ZM276.034 136.911C268.422 146.214 261.526 150.58 255.348 150.58V152.58C262.47 152.58 269.881 147.589 277.582 138.177L276.034 136.911ZM337.835 126.524L336.971 127.028L336.986 127.054L337.003 127.079L337.835 126.524ZM336.559 137.544L335.802 136.89L335.793 136.9L335.785 136.91L336.559 137.544ZM326.119 147.52L326.7 148.334L326.711 148.326L326.119 147.52ZM301.411 141.256L302.323 140.846L301.648 139.346L300.627 140.635L301.411 141.256ZM292.827 149.492L292.336 148.62L292.324 148.627L292.827 149.492ZM272.643 146.36L271.88 147.007L271.887 147.016L271.895 147.024L272.643 146.36ZM272.063 115.388L272.957 115.835L272.96 115.83L272.063 115.388ZM282.851 102.396L283.44 103.204L283.442 103.202L282.851 102.396ZM298.395 96.364L298.502 97.3582L299.311 97.2708L299.39 96.4615L298.395 96.364ZM306.747 57.968L305.815 57.6036L305.814 57.6072L306.747 57.968ZM331.339 46.484L330.526 47.0672L330.531 47.074L330.536 47.0807L331.339 46.484ZM328.323 90.564L327.384 90.2197L327.384 90.2197L328.323 90.564ZM311.271 126.292L310.406 125.789L310.252 126.054L310.273 126.361L311.271 126.292ZM313.243 135.92L312.355 136.381L312.363 136.395L312.37 136.409L313.243 135.92ZM323.683 136.036L323.032 135.277L323.032 135.277L323.683 136.036ZM332.383 126.756L331.623 126.105L331.617 126.113L332.383 126.756ZM317.419 61.216L318.381 61.4888L318.382 61.4851L317.419 61.216ZM313.591 81.632L312.599 81.5046L312.598 81.5136L313.591 81.632ZM311.387 108.08L310.388 108.03L312.295 108.497L311.387 108.08ZM323.567 55.764L322.605 56.0387L322.611 56.0596L322.618 56.0802L323.567 55.764ZM292.827 138.124L293.446 138.909L293.459 138.899L293.471 138.889L292.827 138.124ZM298.395 131.396L299.217 131.964L299.454 131.622L299.378 131.214L298.395 131.396ZM297.467 108.312L298.466 108.349L298.518 106.94L297.171 107.357L297.467 108.312ZM286.795 116.896L285.956 116.352L285.953 116.355L286.795 116.896ZM335.515 126.132C336.135 126.132 336.594 126.381 336.971 127.028L338.698 126.02C337.993 124.811 336.904 124.132 335.515 124.132V126.132ZM337.003 127.079C337.472 127.783 337.763 128.84 337.763 130.352H339.763C339.763 128.616 339.434 127.121 338.667 125.969L337.003 127.079ZM337.763 130.352C337.763 133.296 337.064 135.429 335.802 136.89L337.315 138.198C338.992 136.256 339.763 133.595 339.763 130.352H337.763ZM335.785 136.91C332.664 140.716 329.244 143.983 325.527 146.714L326.711 148.326C330.571 145.489 334.112 142.105 337.332 138.178L335.785 136.91ZM325.537 146.706C321.874 149.323 318.322 150.58 314.867 150.58V152.58C318.835 152.58 322.784 151.13 326.7 148.334L325.537 146.706ZM314.867 150.58C312.139 150.58 309.764 149.787 307.703 148.206C305.629 146.614 303.823 144.185 302.323 140.846L300.498 141.666C302.091 145.21 304.075 147.943 306.486 149.792C308.91 151.653 311.717 152.58 314.867 152.58V150.58ZM300.627 140.635C297.403 144.703 294.639 147.325 292.336 148.62L293.317 150.364C295.963 148.875 298.922 146.006 302.194 141.877L300.627 140.635ZM292.324 148.627C290.104 149.916 287.461 150.58 284.359 150.58V152.58C287.752 152.58 290.754 151.852 293.329 150.357L292.324 148.627ZM284.359 150.58C279.923 150.58 276.291 148.959 273.39 145.696L271.895 147.024C275.181 150.721 279.36 152.58 284.359 152.58V150.58ZM273.405 145.713C270.573 142.373 269.119 138.016 269.119 132.556H267.119C267.119 138.386 268.68 143.233 271.88 147.007L273.405 145.713ZM269.119 132.556C269.119 126.516 270.401 120.948 272.957 115.835L271.168 114.941C268.466 120.346 267.119 126.222 267.119 132.556H269.119ZM272.96 115.83C275.521 110.631 279.015 106.429 283.44 103.204L282.262 101.588C277.561 105.014 273.862 109.473 271.166 114.946L272.96 115.83ZM283.442 103.202C287.94 99.9039 292.954 97.958 298.502 97.3582L298.287 95.3698C292.39 96.0074 287.041 98.0828 282.259 101.59L283.442 103.202ZM299.39 96.4615C300.853 81.5215 303.622 68.8165 307.679 58.3288L305.814 57.6072C301.674 68.3088 298.875 81.2012 297.399 96.2665L299.39 96.4615ZM307.678 58.3324C311.82 47.747 317.032 42.96 323.103 42.96V40.96C315.717 40.96 310.025 46.845 305.815 57.6036L307.678 58.3324ZM323.103 42.96C326.065 42.96 328.523 44.2775 330.526 47.0672L332.151 45.9008C329.823 42.6585 326.791 40.96 323.103 40.96V42.96ZM330.536 47.0807C332.592 49.8461 333.703 54.1541 333.703 60.172H335.703C335.703 53.9713 334.57 49.1539 332.141 45.8873L330.536 47.0807ZM333.703 60.172C333.703 68.6774 331.612 78.6869 327.384 90.2197L329.261 90.9083C333.539 79.2411 335.703 68.9893 335.703 60.172H333.703ZM327.384 90.2197C323.153 101.757 317.496 113.614 310.406 125.789L312.135 126.795C319.275 114.533 324.985 102.571 329.261 90.9083L327.384 90.2197ZM310.273 126.361C310.584 130.868 311.249 134.254 312.355 136.381L314.13 135.459C313.225 133.719 312.576 130.686 312.268 126.223L310.273 126.361ZM312.37 136.409C313.556 138.527 315.188 139.82 317.303 139.82V137.82C316.169 137.82 315.094 137.18 314.115 135.431L312.37 136.409ZM317.303 139.82C319.704 139.82 322.053 138.75 324.333 136.795L323.032 135.277C320.981 137.034 319.077 137.82 317.303 137.82V139.82ZM324.333 136.795C326.563 134.884 329.506 131.739 333.149 127.399L331.617 126.113C327.99 130.434 325.133 133.476 323.032 135.277L324.333 136.795ZM333.142 127.407C333.927 126.49 334.712 126.132 335.515 126.132V124.132C333.997 124.132 332.694 124.856 331.623 126.105L333.142 127.407ZM321.827 52.328C321.14 52.328 320.545 52.6399 320.058 53.0758C319.577 53.5064 319.146 54.1037 318.75 54.8122C317.957 56.2304 317.197 58.2923 316.455 60.9469L318.382 61.4851C319.109 58.8811 319.819 56.9989 320.496 55.7878C320.834 55.1816 321.138 54.7929 321.391 54.5662C321.639 54.3448 321.779 54.328 321.827 54.328V52.328ZM316.457 60.9432C314.968 66.1912 313.685 73.0507 312.599 81.5046L314.582 81.7594C315.662 73.3546 316.93 66.6034 318.381 61.4888L316.457 60.9432ZM312.598 81.5136C311.589 89.9673 310.853 98.8061 310.388 108.03L312.385 108.13C312.848 98.9485 313.581 90.1553 314.584 81.7504L312.598 81.5136ZM312.295 108.497C320.976 89.5865 325.379 74.271 325.379 62.608H323.379C323.379 73.8357 319.12 88.8348 310.478 107.663L312.295 108.497ZM325.379 62.608C325.379 59.6272 325.106 57.2213 324.515 55.4478L322.618 56.0802C323.109 57.5547 323.379 59.7114 323.379 62.608H325.379ZM324.528 55.4893C324.283 54.6326 323.984 53.8973 323.597 53.3558C323.206 52.8083 322.622 52.328 321.827 52.328V54.328C321.727 54.328 321.781 54.2537 321.97 54.5182C322.163 54.7887 322.386 55.2714 322.605 56.0387L324.528 55.4893ZM288.419 140.864C290.168 140.864 291.85 140.169 293.446 138.909L292.207 137.339C290.865 138.399 289.608 138.864 288.419 138.864V140.864ZM293.471 138.889C295.048 137.561 296.966 135.225 299.217 131.964L297.572 130.828C295.338 134.063 293.544 136.212 292.182 137.359L293.471 138.889ZM299.378 131.214C298.618 127.109 298.235 122.493 298.235 117.36H296.235C296.235 122.59 296.625 127.331 297.411 131.578L299.378 131.214ZM298.235 117.36C298.235 115.524 298.311 112.524 298.466 108.349L296.467 108.275C296.313 112.452 296.235 115.484 296.235 117.36H298.235ZM297.171 107.357C292.655 108.752 288.921 111.784 285.956 116.352L287.633 117.44C290.391 113.192 293.771 110.501 297.762 109.267L297.171 107.357ZM285.953 116.355C283.062 120.853 281.619 125.876 281.619 131.396H283.619C283.619 126.244 284.959 121.6 287.636 117.437L285.953 116.355ZM281.619 131.396C281.619 134.302 282.111 136.658 283.244 138.312C284.423 140.034 286.205 140.864 288.419 140.864V138.864C286.765 138.864 285.647 138.282 284.894 137.182C284.093 136.014 283.619 134.136 283.619 131.396H281.619ZM390.806 116.896L389.925 117.37L389.925 117.37L390.806 116.896ZM388.254 127.336L387.957 126.381L387.94 126.386L387.923 126.392L388.254 127.336ZM372.942 130.12L372.9 129.121L372.135 129.153L371.966 129.899L372.942 130.12ZM364.242 145.78L364.908 146.526L364.915 146.519L364.242 145.78ZM337.562 148.216L336.994 149.039L337.003 149.045L337.562 148.216ZM330.95 111.56L331.847 112.001L331.85 111.995L330.95 111.56ZM340.23 100.772L340.773 101.612L340.785 101.604L340.23 100.772ZM367.49 102.976L366.735 103.631L366.741 103.639L366.748 103.647L367.49 102.976ZM373.87 117.94L372.875 118.043L372.974 118.999L373.934 118.938L373.87 117.94ZM386.862 115.62L386.619 114.65L386.609 114.653L386.862 115.62ZM356.818 136.268L356.083 135.59L356.076 135.597L356.069 135.605L356.818 136.268ZM360.53 127.568L361.517 127.729L361.62 127.098L361.091 126.74L360.53 127.568ZM354.962 121.188L354.057 121.614L354.062 121.625L354.067 121.635L354.962 121.188ZM353.454 109.124L354.437 109.308L354.659 108.124H353.454V109.124ZM345.102 113.648L344.28 113.079L344.277 113.083L345.102 113.648ZM344.522 135.92L343.712 136.507L343.718 136.516L343.725 136.524L344.522 135.92ZM388.486 116.388C389.066 116.388 389.53 116.635 389.925 117.37L391.686 116.422C390.999 115.146 389.916 114.388 388.486 114.388V116.388ZM389.925 117.37C390.365 118.187 390.618 119.287 390.618 120.724H392.618C392.618 119.068 392.329 117.615 391.686 116.422L389.925 117.37ZM390.618 120.724C390.618 122.495 390.348 123.799 389.886 124.708C389.44 125.583 388.806 126.118 387.957 126.381L388.55 128.291C389.944 127.858 390.992 126.943 391.668 125.614C392.327 124.319 392.618 122.665 392.618 120.724H390.618ZM387.923 126.392C383.388 127.98 378.383 128.892 372.9 129.121L372.983 131.119C378.637 130.884 383.84 129.94 388.584 128.28L387.923 126.392ZM371.966 129.899C370.536 136.224 367.728 141.253 363.568 145.041L364.915 146.519C369.417 142.419 372.409 137.008 373.917 130.341L371.966 129.899ZM363.576 145.034C359.417 148.747 354.74 150.58 349.51 150.58V152.58C355.261 152.58 360.405 150.546 364.908 146.526L363.576 145.034ZM349.51 150.58C345.037 150.58 341.256 149.501 338.121 147.387L337.003 149.045C340.518 151.416 344.703 152.58 349.51 152.58V150.58ZM338.13 147.393C335.035 145.256 332.676 142.422 331.047 138.867L329.229 139.701C331.002 143.57 333.592 146.69 336.994 149.039L338.13 147.393ZM331.047 138.867C329.409 135.294 328.586 131.416 328.586 127.22H326.586C326.586 131.686 327.464 135.85 329.229 139.701L331.047 138.867ZM328.586 127.22C328.586 121.472 329.682 116.407 331.847 112.001L330.052 111.119C327.732 115.839 326.586 121.214 326.586 127.22H328.586ZM331.85 111.995C334.021 107.504 336.998 104.055 340.773 101.612L339.687 99.9324C335.574 102.593 332.364 106.336 330.049 111.125L331.85 111.995ZM340.785 101.604C344.562 99.0856 348.738 97.828 353.338 97.828V95.828C348.348 95.828 343.785 97.1998 339.675 99.9399L340.785 101.604ZM353.338 97.828C358.953 97.828 363.384 99.7713 366.735 103.631L368.245 102.321C364.481 97.9833 359.478 95.828 353.338 95.828V97.828ZM366.748 103.647C370.225 107.494 372.276 112.277 372.875 118.043L374.864 117.837C374.226 111.694 372.024 106.501 368.232 102.305L366.748 103.647ZM373.934 118.938C377.653 118.701 382.05 117.912 387.115 116.587L386.609 114.653C381.62 115.957 377.356 116.715 373.806 116.942L373.934 118.938ZM387.104 116.59C387.671 116.448 388.128 116.388 388.486 116.388V114.388C387.916 114.388 387.29 114.482 386.619 114.65L387.104 116.59ZM350.438 140.284C353.225 140.284 355.616 139.135 357.567 136.931L356.069 135.605C354.462 137.422 352.6 138.284 350.438 138.284V140.284ZM357.553 136.946C359.585 134.744 360.879 131.637 361.517 127.729L359.543 127.407C358.944 131.078 357.763 133.77 356.083 135.59L357.553 136.946ZM361.091 126.74C358.838 125.214 357.095 123.219 355.856 120.741L354.067 121.635C355.458 124.416 357.427 126.674 359.969 128.396L361.091 126.74ZM355.867 120.762C354.693 118.268 354.106 115.629 354.106 112.836H352.106C352.106 115.92 352.756 118.85 354.057 121.614L355.867 120.762ZM354.106 112.836C354.106 111.662 354.216 110.486 354.437 109.308L352.471 108.94C352.228 110.237 352.106 111.536 352.106 112.836H354.106ZM353.454 108.124H352.874V110.124H353.454V108.124ZM352.874 108.124C349.388 108.124 346.515 109.85 344.28 113.079L345.924 114.217C347.865 111.414 350.173 110.124 352.874 110.124V108.124ZM344.277 113.083C342.107 116.254 341.086 120.659 341.086 126.176H343.086C343.086 120.866 344.075 116.919 345.927 114.213L344.277 113.083ZM341.086 126.176C341.086 130.534 341.914 134.024 343.712 136.507L345.332 135.333C343.882 133.331 343.086 130.325 343.086 126.176H341.086ZM343.725 136.524C345.562 138.946 347.804 140.284 350.438 140.284V138.284C348.587 138.284 346.884 137.379 345.319 135.316L343.725 136.524ZM432.818 114.692L432.088 115.376L432.11 115.399L432.134 115.422L432.818 114.692ZM433.978 122.348L434.896 122.745L434.901 122.732L434.906 122.719L433.978 122.348ZM428.758 129.54L429.411 130.297L429.411 130.297L428.758 129.54ZM415.766 130.12L415.041 130.809L415.05 130.818L415.059 130.827L415.766 130.12ZM413.794 119.1L412.801 118.976L412.799 118.993L412.798 119.009L413.794 119.1ZM413.562 115.156L412.762 115.756L412.804 115.813L412.855 115.863L413.562 115.156ZM408.226 118.636L409.035 119.224L409.043 119.213L408.226 118.636ZM402.658 128.844L401.741 128.444L401.741 128.444L402.658 128.844ZM398.134 142.3L397.163 142.061L397.161 142.069L397.159 142.077L398.134 142.3ZM395.234 149.724L394.481 149.065L394.481 149.065L395.234 149.724ZM383.634 146.94L382.697 147.291L382.701 147.301L382.705 147.311L383.634 146.94ZM386.186 103.44L387.139 103.742L387.141 103.736L386.186 103.44ZM389.55 98.568L390.095 99.4065L390.104 99.4L389.55 98.568ZM398.714 108.08L397.748 107.821L397.746 107.829L397.744 107.837L398.714 108.08ZM395.698 124.784L394.702 124.693L396.631 125.142L395.698 124.784ZM404.282 108.544L403.485 107.939L403.485 107.939L404.282 108.544ZM426.902 98.916L426.152 99.5776L426.173 99.601L426.195 99.6231L426.902 98.916ZM427.482 112.836L426.503 112.633L426.253 113.836H427.482V112.836ZM428.526 113.836C429.952 113.836 431.118 114.341 432.088 115.376L433.547 114.008C432.198 112.568 430.503 111.836 428.526 111.836V113.836ZM432.134 115.422C433.159 116.382 433.674 117.583 433.674 119.1H435.674C435.674 117.06 434.951 115.322 433.502 113.962L432.134 115.422ZM433.674 119.1C433.674 119.951 433.477 120.907 433.049 121.977L434.906 122.719C435.406 121.469 435.674 120.259 435.674 119.1H433.674ZM433.06 121.951C431.879 124.681 430.227 126.953 428.105 128.783L429.411 130.297C431.774 128.26 433.602 125.737 434.896 122.745L433.06 121.951ZM428.105 128.783C426.025 130.575 423.778 131.44 421.334 131.44V133.44C424.303 133.44 427.005 132.371 429.411 130.297L428.105 128.783ZM421.334 131.44C419.437 131.44 417.834 130.774 416.473 129.413L415.059 130.827C416.791 132.559 418.9 133.44 421.334 133.44V131.44ZM416.491 129.431C415.237 128.111 414.562 126.292 414.562 123.856H412.562C412.562 126.679 413.356 129.035 415.041 130.809L416.491 129.431ZM414.562 123.856C414.562 122.421 414.637 120.866 414.79 119.191L412.798 119.009C412.641 120.736 412.562 122.352 412.562 123.856H414.562ZM414.786 119.224C414.94 117.992 415.026 117.083 415.026 116.548H413.026C413.026 116.941 412.957 117.733 412.801 118.976L414.786 119.224ZM415.026 116.548C415.026 115.775 414.832 115.012 414.269 114.449L412.855 115.863C412.91 115.919 413.026 116.083 413.026 116.548H415.026ZM414.362 114.556C413.941 113.995 413.335 113.692 412.634 113.692V115.692C412.69 115.692 412.708 115.702 412.709 115.702C412.709 115.702 412.728 115.711 412.762 115.756L414.362 114.556ZM412.634 113.692C411.712 113.692 410.836 114.232 410.053 114.933C409.238 115.662 408.357 116.716 407.409 118.059L409.043 119.213C409.951 117.926 410.732 117.009 411.387 116.423C412.072 115.81 412.473 115.692 412.634 115.692V113.692ZM407.417 118.048C405.504 120.679 403.614 124.152 401.741 128.444L403.574 129.244C405.413 125.029 407.236 121.697 409.034 119.224L407.417 118.048ZM401.741 128.444C399.861 132.752 398.336 137.291 397.163 142.061L399.105 142.539C400.252 137.874 401.742 133.443 403.574 129.244L401.741 128.444ZM397.159 142.077C396.309 145.787 395.383 148.035 394.481 149.065L395.986 150.383C397.25 148.938 398.257 146.237 399.108 142.523L397.159 142.077ZM394.481 149.065C393.667 149.996 392.231 150.58 389.898 150.58V152.58C392.514 152.58 394.635 151.927 395.986 150.383L394.481 149.065ZM389.898 150.58C388.613 150.58 387.573 150.246 386.723 149.616C385.865 148.981 385.131 147.991 384.562 146.569L382.705 147.311C383.374 148.982 384.303 150.313 385.533 151.224C386.771 152.141 388.243 152.58 389.898 152.58V150.58ZM384.57 146.589C383.477 143.674 382.894 138.877 382.894 132.092H380.894C380.894 138.918 381.471 144.02 382.697 147.291L384.57 146.589ZM382.894 132.092C382.894 122.135 384.311 112.686 387.139 103.742L385.232 103.138C382.338 112.29 380.894 121.942 380.894 132.092H382.894ZM387.141 103.736C387.787 101.655 388.792 100.253 390.095 99.4064L389.005 97.7296C387.214 98.8936 385.977 100.74 385.231 103.144L387.141 103.736ZM390.104 99.4C391.504 98.4669 393.527 97.944 396.278 97.944V95.944C393.306 95.944 390.843 96.5038 388.995 97.7359L390.104 99.4ZM396.278 97.944C397.804 97.944 398.635 98.1465 398.996 98.372L400.056 96.676C399.179 96.1282 397.844 95.944 396.278 95.944V97.944ZM398.996 98.372C399.197 98.4976 399.454 98.8105 399.454 99.728H401.454C401.454 98.4801 401.092 97.3237 400.056 96.676L398.996 98.372ZM399.454 99.728C399.454 100.234 399.329 101.151 399.04 102.54C398.755 103.906 398.325 105.665 397.748 107.821L399.68 108.339C400.262 106.164 400.702 104.366 400.998 102.948C401.288 101.553 401.454 100.459 401.454 99.728H399.454ZM397.744 107.837C396.968 110.941 396.345 113.664 395.877 116.004L397.838 116.396C398.298 114.096 398.913 111.405 399.684 108.323L397.744 107.837ZM395.877 116.004C395.404 118.37 395.013 121.269 394.702 124.693L396.694 124.875C397.001 121.493 397.384 118.67 397.838 116.396L395.877 116.004ZM396.631 125.142C399.161 118.551 401.981 113.228 405.078 109.149L403.485 107.939C400.241 112.212 397.339 117.716 394.764 124.426L396.631 125.142ZM405.078 109.149C408.206 105.03 411.207 102.162 414.07 100.473L413.054 98.7506C409.885 100.62 406.699 103.706 403.485 107.939L405.078 109.149ZM414.07 100.473C416.992 98.7498 419.561 97.944 421.798 97.944V95.944C419.085 95.944 416.163 96.9169 413.054 98.7506L414.07 100.473ZM421.798 97.944C423.839 97.944 425.232 98.5349 426.152 99.5776L427.652 98.2544C426.252 96.6677 424.242 95.944 421.798 95.944V97.944ZM426.195 99.6231C427.178 100.607 427.758 102.163 427.758 104.484H429.758C429.758 101.855 429.1 99.6999 427.609 98.2089L426.195 99.6231ZM427.758 104.484C427.758 105.835 427.356 108.521 426.503 112.633L428.461 113.039C429.309 108.954 429.758 106.072 429.758 104.484H427.758ZM427.482 113.836H428.526V111.836H427.482V113.836Z" fill="black"/>
<path d="M293.688 209.76C293.688 216.333 291.368 222.017 286.728 226.812C282.088 231.529 275.321 234.932 266.428 237.02C271.223 238.335 274.857 240.5 277.332 243.516C279.807 246.455 281.044 249.857 281.044 253.724C281.044 259.833 279.111 265.131 275.244 269.616C271.455 274.101 265.887 277.581 258.54 280.056C251.193 282.453 242.339 283.652 231.976 283.652C228.109 283.652 225.016 283.536 222.696 283.304C222.619 285.469 221.691 287.093 219.912 288.176C218.133 289.259 215.852 289.8 213.068 289.8C210.284 289.8 208.351 289.181 207.268 287.944C206.263 286.707 205.837 284.889 205.992 282.492C206.688 271.665 208.041 260.336 210.052 248.504C212.063 236.595 214.615 225.111 217.708 214.052C218.249 212.119 219.332 210.765 220.956 209.992C222.58 209.219 224.707 208.832 227.336 208.832C232.053 208.832 234.412 210.147 234.412 212.776C234.412 213.859 234.18 215.096 233.716 216.488C231.705 222.52 229.695 230.717 227.684 241.08C225.673 251.365 224.243 261.187 223.392 270.544C227.104 270.853 230.12 271.008 232.44 271.008C243.267 271.008 251.193 269.461 256.22 266.368C261.324 263.197 263.876 259.176 263.876 254.304C263.876 250.901 262.407 248.04 259.468 245.72C256.607 243.4 251.773 242.124 244.968 241.892C243.421 241.815 242.339 241.428 241.72 240.732C241.101 240.036 240.792 238.915 240.792 237.368C240.792 235.125 241.256 233.308 242.184 231.916C243.112 230.524 244.813 229.789 247.288 229.712C252.779 229.557 257.728 228.745 262.136 227.276C266.621 225.807 270.14 223.757 272.692 221.128C275.244 218.421 276.52 215.289 276.52 211.732C276.52 207.247 274.316 203.728 269.908 201.176C265.5 198.547 258.733 197.232 249.608 197.232C241.333 197.232 233.329 198.315 225.596 200.48C217.863 202.568 211.289 205.236 205.876 208.484C203.401 209.953 201.313 210.688 199.612 210.688C198.22 210.688 197.137 210.224 196.364 209.296C195.668 208.291 195.32 207.053 195.32 205.584C195.32 203.651 195.707 201.988 196.48 200.596C197.331 199.204 199.303 197.619 202.396 195.84C208.892 192.128 216.509 189.228 225.248 187.14C233.987 185.052 242.919 184.008 252.044 184.008C266.041 184.008 276.481 186.367 283.364 191.084C290.247 195.801 293.688 202.027 293.688 209.76ZM304.141 284.58C299.346 284.58 295.518 282.84 292.657 279.36C289.795 275.88 288.365 271.317 288.365 265.672C288.365 259.485 289.795 253.647 292.657 248.156C295.518 242.588 299.307 238.141 304.025 234.816C308.819 231.413 313.885 229.712 319.221 229.712C320.922 229.712 322.043 230.06 322.585 230.756C323.203 231.375 323.706 232.535 324.093 234.236C325.717 233.927 327.418 233.772 329.197 233.772C332.986 233.772 334.881 235.125 334.881 237.832C334.881 239.456 334.301 243.323 333.141 249.432C331.362 258.325 330.473 264.512 330.473 267.992C330.473 269.152 330.743 270.08 331.285 270.776C331.903 271.472 332.677 271.82 333.605 271.82C335.074 271.82 336.853 270.892 338.941 269.036C341.029 267.103 343.851 264.009 347.409 259.756C348.337 258.673 349.381 258.132 350.541 258.132C351.546 258.132 352.319 258.596 352.861 259.524C353.479 260.452 353.789 261.728 353.789 263.352C353.789 266.445 353.054 268.843 351.585 270.544C348.414 274.488 345.05 277.813 341.493 280.52C337.935 283.227 334.494 284.58 331.169 284.58C328.617 284.58 326.258 283.729 324.093 282.028C322.005 280.249 320.419 277.852 319.337 274.836C315.315 281.332 310.25 284.58 304.141 284.58ZM308.317 272.864C310.018 272.864 311.642 271.859 313.189 269.848C314.735 267.837 315.857 265.169 316.553 261.844L320.845 240.5C317.597 240.577 314.581 241.815 311.797 244.212C309.09 246.532 306.925 249.625 305.301 253.492C303.677 257.359 302.865 261.457 302.865 265.788C302.865 268.185 303.329 269.964 304.257 271.124C305.262 272.284 306.615 272.864 308.317 272.864ZM366.517 284.58C358.938 284.58 353.022 282.453 348.769 278.2C344.593 273.869 342.505 268.185 342.505 261.148C342.505 254.884 343.742 249.393 346.217 244.676C348.692 239.959 351.901 236.324 355.845 233.772C359.789 231.22 363.926 229.944 368.257 229.944C372.51 229.944 375.797 231.22 378.117 233.772C380.514 236.247 381.713 239.456 381.713 243.4C381.713 246.648 380.978 249.393 379.509 251.636C378.117 253.879 376.261 255 373.941 255C372.472 255 371.273 254.652 370.345 253.956C369.494 253.26 369.069 252.293 369.069 251.056C369.069 250.515 369.146 249.896 369.301 249.2C369.456 248.504 369.572 248.001 369.649 247.692C370.036 246.532 370.229 245.449 370.229 244.444C370.229 243.439 369.958 242.665 369.417 242.124C368.953 241.583 368.257 241.312 367.329 241.312C365.55 241.312 363.888 242.124 362.341 243.748C360.794 245.295 359.557 247.421 358.629 250.128C357.701 252.835 357.237 255.812 357.237 259.06C357.237 268.031 361.142 272.516 368.953 272.516C372.124 272.516 375.526 271.472 379.161 269.384C382.873 267.219 386.508 264.009 390.065 259.756C390.993 258.673 392.037 258.132 393.197 258.132C394.202 258.132 394.976 258.596 395.517 259.524C396.136 260.452 396.445 261.728 396.445 263.352C396.445 266.291 395.71 268.688 394.241 270.544C390.606 275.029 386.237 278.509 381.133 280.984C376.106 283.381 371.234 284.58 366.517 284.58ZM454.116 258.132C455.121 258.132 455.895 258.596 456.436 259.524C457.055 260.452 457.364 261.728 457.364 263.352C457.364 266.445 456.629 268.843 455.16 270.544C451.68 274.797 448.161 278.2 444.604 280.752C441.047 283.304 436.832 284.58 431.96 284.58C426.005 284.58 421.211 282.879 417.576 279.476C413.941 276.073 412.124 271.549 412.124 265.904C412.124 262.888 413.671 260.723 416.764 259.408C420.167 257.939 422.603 256.392 424.072 254.768C425.541 253.067 426.276 251.017 426.276 248.62C426.276 247.228 425.967 246.184 425.348 245.488C424.807 244.792 424.111 244.444 423.26 244.444C421.172 244.444 418.852 245.952 416.3 248.968C413.825 251.984 411.505 255.889 409.34 260.684C407.175 265.401 405.473 270.273 404.236 275.3C403.385 278.935 402.38 281.409 401.22 282.724C400.137 283.961 398.397 284.58 396 284.58C393.603 284.58 391.824 283.729 390.664 282.028C389.581 280.249 388.847 277.543 388.46 273.908C388.073 270.273 387.88 264.937 387.88 257.9C387.88 245.991 389.079 233.579 391.476 220.664C393.951 207.749 397.547 196.923 402.264 188.184C407.059 179.368 412.781 174.96 419.432 174.96C422.989 174.96 425.851 176.507 428.016 179.6C430.259 182.616 431.38 186.56 431.38 191.432C431.38 199.243 429.099 207.363 424.536 215.792C419.973 224.144 412.549 233.927 402.264 245.14C402.032 249.161 401.916 253.299 401.916 257.552C405.628 247.885 409.881 240.887 414.676 236.556C419.471 232.148 423.956 229.944 428.132 229.944C431.999 229.944 435.092 231.259 437.412 233.888C439.809 236.517 441.008 239.765 441.008 243.632C441.008 247.885 439.925 251.791 437.76 255.348C435.595 258.905 431.883 262.076 426.624 264.86C426.933 266.948 427.861 268.649 429.408 269.964C431.032 271.201 432.965 271.82 435.208 271.82C437.605 271.82 439.925 270.892 442.168 269.036C444.411 267.18 447.349 264.087 450.984 259.756C451.912 258.673 452.956 258.132 454.116 258.132ZM416.996 186.444C415.604 186.444 414.057 188.455 412.356 192.476C410.655 196.42 408.992 201.795 407.368 208.6C405.821 215.328 404.545 222.675 403.54 230.64C408.335 224.995 412.279 218.847 415.372 212.196C418.543 205.545 420.128 199.513 420.128 194.1C420.128 191.625 419.857 189.731 419.316 188.416C418.775 187.101 418.001 186.444 416.996 186.444ZM459.845 284.58C456.365 284.58 453.504 282.995 451.261 279.824C449.096 276.576 448.013 272.555 448.013 267.76C448.013 261.96 448.4 256.663 449.173 251.868C449.947 246.996 451.223 241.853 453.001 236.44C453.775 234.12 454.857 232.457 456.249 231.452C457.641 230.447 459.845 229.944 462.861 229.944C464.563 229.944 465.723 230.215 466.341 230.756C467.037 231.297 467.385 232.109 467.385 233.192C467.385 233.811 466.96 235.899 466.109 239.456C465.336 242.317 464.717 244.908 464.253 247.228C462.707 255.348 461.933 260.761 461.933 263.468C461.933 265.092 462.127 266.252 462.513 266.948C462.9 267.567 463.519 267.876 464.369 267.876C465.529 267.876 466.96 266.716 468.661 264.396C470.44 262.076 472.296 258.557 474.229 253.84C476.24 249.123 478.173 243.323 480.029 236.44C480.648 234.12 481.576 232.457 482.813 231.452C484.128 230.447 486.061 229.944 488.613 229.944C490.392 229.944 491.629 230.176 492.325 230.64C493.021 231.027 493.369 231.8 493.369 232.96C493.369 234.893 492.403 240.191 490.469 248.852C488.304 258.751 487.221 264.86 487.221 267.18C487.221 268.649 487.531 269.809 488.149 270.66C488.768 271.433 489.58 271.82 490.585 271.82C492.132 271.82 493.949 270.892 496.037 269.036C498.203 267.103 501.064 264.009 504.621 259.756C505.549 258.673 506.593 258.132 507.753 258.132C508.759 258.132 509.532 258.596 510.073 259.524C510.692 260.452 511.001 261.728 511.001 263.352C511.001 266.445 510.267 268.843 508.797 270.544C505.472 274.643 501.876 278.007 498.009 280.636C494.22 283.265 489.889 284.58 485.017 284.58C481.305 284.58 478.56 283.149 476.781 280.288C475.08 277.427 474.229 273.405 474.229 268.224C472.915 273.483 470.943 277.543 468.313 280.404C465.684 283.188 462.861 284.58 459.845 284.58ZM547.531 248.62C547.531 254.729 546.101 260.529 543.239 266.02C540.455 271.433 536.705 275.841 531.987 279.244C527.347 282.647 522.359 284.425 517.023 284.58C516.018 299.505 513.737 311.956 510.179 321.932C506.622 331.985 501.402 337.012 494.519 337.012C490.343 337.012 487.25 335.504 485.239 332.488C483.229 329.472 482.223 325.296 482.223 319.96C482.223 312.381 483.963 303.527 487.443 293.396C490.923 283.343 496.298 272.245 503.567 260.104C503.567 248.813 503.49 240.964 503.335 236.556C503.258 234.313 504.147 232.535 506.003 231.22C507.859 229.905 510.179 229.248 512.963 229.248C514.587 229.248 515.747 229.596 516.443 230.292C517.217 230.911 517.642 232.187 517.719 234.12C517.719 236.053 517.758 237.484 517.835 238.412C520.31 235.319 522.746 233.115 525.143 231.8C527.541 230.408 530.093 229.712 532.799 229.712C537.13 229.712 540.649 231.452 543.355 234.932C546.139 238.412 547.531 242.975 547.531 248.62ZM517.603 273.444C520.387 272.825 522.939 271.317 525.259 268.92C527.657 266.445 529.551 263.429 530.943 259.872C532.335 256.237 533.031 252.448 533.031 248.504C533.031 246.184 532.567 244.444 531.639 243.284C530.711 242.047 529.474 241.428 527.927 241.428C525.143 241.428 521.779 244.367 517.835 250.244C517.758 253.647 517.719 258.635 517.719 265.208C517.719 268.765 517.681 271.511 517.603 273.444ZM495.447 325.644C497.535 325.644 499.275 321.081 500.667 311.956C502.059 302.908 502.949 291.617 503.335 278.084C500.01 285.817 497.381 293.203 495.447 300.24C493.514 307.277 492.547 313.193 492.547 317.988C492.547 320.463 492.857 322.357 493.475 323.672C494.017 324.987 494.674 325.644 495.447 325.644Z" fill="#EB5757"/>
</svg>
